<?xml version="1.0" encoding="UTF-8"?>
<!-- Generator: Adobe Illustrator 24.0.1, SVG Export Plug-In . SVG Version: 6.00 Build 0)  -->
<svg version="1.1" id="Capa_1" xmlns="http://www.w3.org/2000/svg" xmlns:xlink="http://www.w3.org/1999/xlink" x="0px" y="0px" viewBox="0 0 431 147" style="enable-background:new 0 0 431 147;" xml:space="preserve">
<style type="text/css">
	.st0{fill:#7597A1;}
	.st1{fill:#121212;}
	.st2{fill:#003764;}
	.st3{fill:#FFFFFF;}
</style>
<path d="M513.15,1205.34c1.02-1.37,1.53-3.12,1.53-5.22c0-2.18-0.58-3.83-1.73-4.95c-1.16-1.12-2.57-1.68-4.24-1.68  c-1.87,0-3.35,0.65-4.46,1.95c-1.11,1.3-1.66,3.05-1.66,5.25c0,2.05,0.52,3.68,1.58,4.9c1.05,1.22,2.47,1.82,4.25,1.82  C510.56,1207.4,512.14,1206.72,513.15,1205.34z M505.76,1204.12c-0.6-0.93-0.9-2.09-0.9-3.48c0-1.45,0.3-2.68,0.9-3.71  c0.6-1.02,1.57-1.54,2.89-1.54c1.49,0,2.55,0.6,3.16,1.81c0.39,0.76,0.58,1.76,0.58,2.98c0,1.35-0.27,2.58-0.8,3.68  c-0.53,1.1-1.52,1.65-2.96,1.65C507.32,1205.51,506.36,1205.05,505.76,1204.12z M509.8,1219.29h1.68l3.25-3.53h-2.71L509.8,1219.29z   M522.05,1195.72c0.33-0.11,0.76-0.16,1.28-0.16c1.02,0,1.73,0.41,2.12,1.22c0.24,0.49,0.35,1.13,0.35,1.93v8.23h2.23v-8.38  c0-1.32-0.18-2.33-0.54-3.04c-0.65-1.29-1.9-1.94-3.76-1.94c-0.85,0-1.61,0.17-2.31,0.5c-0.69,0.33-1.35,0.89-1.96,1.65v-1.87h-2.09  v13.08h2.2v-6.84c0-0.85,0.05-1.51,0.16-1.97c0.11-0.46,0.35-0.9,0.71-1.34C520.92,1196.25,521.45,1195.9,522.05,1195.72z   M511.5,1220.63c-1.87,0-3.35,0.65-4.46,1.95c-1.11,1.3-1.66,3.05-1.66,5.25c0,2.05,0.52,3.68,1.58,4.9  c1.05,1.22,2.47,1.82,4.25,1.82c2.14,0,3.72-0.69,4.74-2.06c1.02-1.38,1.53-3.12,1.53-5.22c0-2.18-0.58-3.83-1.73-4.95  C514.59,1221.19,513.17,1220.63,511.5,1220.63z M514.38,1231.01c-0.53,1.1-1.52,1.65-2.96,1.65c-1.31,0-2.27-0.46-2.87-1.39  c-0.6-0.93-0.9-2.09-0.9-3.48c0-1.45,0.3-2.68,0.9-3.71c0.6-1.02,1.57-1.54,2.89-1.54c1.49,0,2.55,0.6,3.16,1.8  c0.39,0.76,0.58,1.76,0.58,2.98C515.18,1228.68,514.91,1229.91,514.38,1231.01z M499.97,1230.34c-0.92,1.37-2.26,2.06-4.02,2.06  c-1.91,0-3.35-0.65-4.31-1.96c-0.96-1.3-1.45-3.01-1.45-5.1c0-2.56,0.53-4.46,1.6-5.7c1.07-1.24,2.47-1.86,4.21-1.86  c1.42,0,2.53,0.34,3.32,1.01c0.79,0.68,1.31,1.59,1.58,2.75h2.38c-0.14-1.52-0.83-2.88-2.06-4.08c-1.24-1.2-2.98-1.8-5.23-1.8  c-2.63,0-4.7,0.92-6.19,2.76c-1.38,1.69-2.08,3.86-2.08,6.51c0,3.48,0.92,6.06,2.77,7.73c1.4,1.26,3.13,1.89,5.19,1.89  c2.39,0,4.29-0.77,5.7-2.31c1.17-1.28,1.87-2.86,2.08-4.75h-2.38C500.82,1228.67,500.46,1229.62,499.97,1230.34z M580.08,1161.78  v6.61c-0.49-0.61-0.94-1.04-1.33-1.29c-0.67-0.42-1.51-0.64-2.51-0.64c-1.8,0-3.18,0.7-4.15,2.09c-0.97,1.39-1.45,3.04-1.45,4.95  c0,2.03,0.53,3.66,1.59,4.89c1.06,1.22,2.32,1.84,3.77,1.84c0.9,0,1.7-0.18,2.4-0.54c0.7-0.36,1.3-0.94,1.81-1.75v1.83h1.97v-18  H580.08z M579.18,1177c-0.65,0.87-1.48,1.31-2.5,1.31c-1.3,0-2.25-0.47-2.84-1.41c-0.59-0.94-0.89-2.11-0.89-3.51  c0-1.64,0.34-2.88,1.03-3.73c0.68-0.85,1.58-1.27,2.68-1.27c0.99,0,1.82,0.4,2.49,1.19c0.67,0.79,1.01,2.01,1.01,3.66  C580.16,1174.88,579.84,1176.13,579.18,1177z M493.89,1206.11c0.98-0.8,1.59-2.07,1.83-3.8h-2.14c-0.2,0.96-0.57,1.72-1.1,2.28  c-0.53,0.56-1.25,0.83-2.16,0.83c-1.19,0-2.06-0.45-2.61-1.34c-0.55-0.89-0.83-1.99-0.83-3.3c0-1.3,0.19-2.39,0.58-3.28  c0.6-1.36,1.6-2.05,3-2.05c1.02,0,1.77,0.27,2.23,0.8c0.46,0.53,0.76,1.2,0.89,2h2.14c-0.19-1.75-0.74-2.98-1.67-3.69  c-0.92-0.71-2.12-1.07-3.59-1.07c-1.72,0-3.14,0.64-4.26,1.92c-1.11,1.28-1.67,3.06-1.67,5.36c0,1.87,0.51,3.43,1.52,4.68  c1.02,1.25,2.38,1.87,4.09,1.87C491.67,1207.31,492.91,1206.91,493.89,1206.11z M581.24,1232.6c-0.3,0-0.5-0.07-0.59-0.21  c-0.09-0.14-0.14-0.32-0.14-0.55v-7.53c0-1.24-0.48-2.15-1.42-2.74c-0.96-0.59-2.21-0.88-3.74-0.88c-1.32,0-2.49,0.32-3.49,0.95  c-1,0.63-1.52,1.76-1.57,3.38h2.05c0.08-0.68,0.26-1.19,0.52-1.54c0.48-0.62,1.29-0.93,2.43-0.93c0.99,0,1.75,0.17,2.28,0.51  c0.53,0.34,0.8,0.89,0.8,1.64c0,0.37-0.05,0.65-0.15,0.85c-0.17,0.36-0.51,0.57-1.01,0.63l-3.5,0.44c-1.23,0.16-2.22,0.57-2.97,1.23  s-1.13,1.61-1.13,2.82c0,1.11,0.38,2.03,1.15,2.76c0.77,0.74,1.76,1.1,2.97,1.1c1.01,0,1.93-0.22,2.77-0.65  c0.84-0.43,1.48-0.94,1.93-1.53c0.07,0.52,0.2,0.92,0.38,1.21c0.34,0.54,0.89,0.8,1.65,0.8c0.31,0,0.55-0.01,0.73-0.04  s0.44-0.09,0.78-0.18v-1.62c-0.14,0.02-0.27,0.04-0.39,0.05C581.45,1232.59,581.34,1232.6,581.24,1232.6z M578.31,1229.21  c0,1.35-0.61,2.32-1.83,2.91c-0.72,0.36-1.47,0.54-2.24,0.54c-0.63,0-1.18-0.18-1.64-0.55c-0.46-0.37-0.69-0.86-0.69-1.5  c0-0.84,0.34-1.45,1.02-1.83c0.4-0.23,1-0.39,1.79-0.5l1.33-0.17c0.41-0.05,0.82-0.13,1.24-0.24c0.42-0.12,0.77-0.26,1.03-0.43  V1229.21z M542.25,1207.18c0.18-0.02,0.44-0.08,0.78-0.18v-1.62c-0.14,0.02-0.27,0.04-0.39,0.05c-0.12,0.01-0.23,0.02-0.33,0.02  c-0.3,0-0.5-0.07-0.59-0.21c-0.09-0.14-0.14-0.32-0.14-0.55v-7.53c0-1.24-0.48-2.15-1.43-2.74c-0.96-0.59-2.2-0.88-3.74-0.88  c-1.32,0-2.49,0.32-3.49,0.95c-1,0.63-1.52,1.76-1.56,3.38h2.05c0.08-0.68,0.26-1.19,0.52-1.54c0.48-0.62,1.29-0.93,2.43-0.93  c0.99,0,1.75,0.17,2.28,0.51c0.53,0.34,0.8,0.88,0.8,1.64c0,0.37-0.05,0.65-0.15,0.85c-0.17,0.36-0.51,0.57-1.01,0.63l-3.5,0.44  c-1.23,0.15-2.22,0.57-2.97,1.23c-0.76,0.67-1.13,1.61-1.13,2.82c0,1.11,0.38,2.03,1.15,2.76c0.77,0.74,1.76,1.1,2.97,1.1  c1.01,0,1.93-0.22,2.77-0.65c0.84-0.43,1.48-0.94,1.93-1.53c0.07,0.52,0.2,0.92,0.38,1.21c0.34,0.54,0.89,0.8,1.65,0.8  C541.83,1207.22,542.07,1207.2,542.25,1207.18z M539.38,1202.06c0,1.35-0.61,2.32-1.83,2.91c-0.72,0.36-1.47,0.54-2.24,0.54  c-0.63,0-1.18-0.18-1.64-0.55c-0.46-0.37-0.69-0.87-0.69-1.5c0-0.84,0.34-1.45,1.02-1.83c0.4-0.23,1-0.39,1.79-0.5l1.33-0.17  c0.4-0.05,0.82-0.13,1.24-0.25c0.42-0.12,0.77-0.26,1.03-0.43V1202.06z M545.25,1189v17.94h2.2V1189H545.25z M482.55,1205.45  c-0.3,0-0.5-0.07-0.59-0.21c-0.09-0.14-0.14-0.32-0.14-0.55v-7.53c0-1.24-0.48-2.15-1.43-2.74c-0.96-0.59-2.2-0.88-3.74-0.88  c-1.32,0-2.49,0.32-3.49,0.95s-1.52,1.76-1.56,3.38h2.05c0.08-0.68,0.26-1.19,0.52-1.54c0.48-0.62,1.29-0.93,2.43-0.93  c0.99,0,1.75,0.17,2.28,0.51c0.53,0.34,0.8,0.88,0.8,1.64c0,0.37-0.05,0.65-0.15,0.85c-0.17,0.36-0.51,0.57-1.01,0.63l-3.5,0.44  c-1.23,0.15-2.22,0.57-2.97,1.23c-0.76,0.67-1.13,1.61-1.13,2.82c0,1.11,0.38,2.03,1.15,2.76c0.77,0.74,1.76,1.1,2.97,1.1  c1.01,0,1.93-0.22,2.77-0.65c0.84-0.43,1.48-0.94,1.93-1.53c0.07,0.52,0.2,0.92,0.38,1.21c0.34,0.54,0.89,0.8,1.65,0.8  c0.31,0,0.55-0.01,0.73-0.04s0.44-0.08,0.78-0.18v-1.62c-0.14,0.02-0.27,0.04-0.39,0.05  C482.76,1205.44,482.65,1205.45,482.55,1205.45z M479.61,1202.06c0,1.35-0.61,2.32-1.83,2.91c-0.72,0.36-1.47,0.54-2.24,0.54  c-0.63,0-1.18-0.18-1.64-0.55c-0.46-0.37-0.69-0.87-0.69-1.5c0-0.84,0.34-1.45,1.02-1.83c0.4-0.23,1-0.39,1.79-0.5l1.33-0.17  c0.4-0.05,0.82-0.13,1.24-0.25c0.42-0.12,0.77-0.26,1.03-0.43V1202.06z M547.64,1220.63c-1.87,0-3.35,0.65-4.46,1.95  c-1.11,1.3-1.66,3.05-1.66,5.25c0,2.05,0.52,3.68,1.58,4.9c1.05,1.22,2.47,1.82,4.25,1.82c2.14,0,3.72-0.69,4.74-2.06  c1.02-1.38,1.53-3.12,1.53-5.22c0-2.18-0.58-3.83-1.73-4.95C550.72,1221.19,549.31,1220.63,547.64,1220.63z M550.51,1231.01  c-0.53,1.1-1.52,1.65-2.96,1.65c-1.31,0-2.27-0.46-2.87-1.39c-0.6-0.93-0.9-2.09-0.9-3.48c0-1.45,0.3-2.68,0.9-3.71  c0.6-1.02,1.57-1.54,2.89-1.54c1.49,0,2.55,0.6,3.16,1.8c0.39,0.76,0.58,1.76,0.58,2.98  C551.31,1228.68,551.05,1229.91,550.51,1231.01z M537.02,1222.69c-0.49-0.61-0.94-1.04-1.33-1.29c-0.67-0.42-1.51-0.64-2.51-0.64  c-1.8,0-3.18,0.7-4.15,2.09c-0.97,1.4-1.45,3.04-1.45,4.95c0,2.03,0.53,3.66,1.59,4.89c1.06,1.22,2.32,1.84,3.77,1.84  c0.9,0,1.7-0.18,2.4-0.54c0.7-0.36,1.3-0.94,1.81-1.75v1.83h1.97v-18h-2.11V1222.69z M536.12,1231.3c-0.65,0.87-1.48,1.31-2.5,1.31  c-1.3,0-2.25-0.47-2.84-1.41c-0.59-0.94-0.89-2.11-0.89-3.51c0-1.64,0.34-2.88,1.03-3.73c0.68-0.84,1.58-1.27,2.68-1.27  c0.99,0,1.82,0.4,2.49,1.19c0.67,0.79,1.01,2.01,1.01,3.66C537.1,1229.18,536.77,1230.43,536.12,1231.3z M568.69,1178.3  c-0.3,0-0.5-0.07-0.59-0.21c-0.09-0.14-0.14-0.32-0.14-0.55v-7.53c0-1.24-0.48-2.15-1.42-2.74c-0.96-0.59-2.21-0.88-3.74-0.88  c-1.32,0-2.49,0.32-3.49,0.95c-1,0.63-1.52,1.76-1.56,3.38h2.05c0.08-0.68,0.26-1.19,0.52-1.54c0.48-0.62,1.29-0.93,2.43-0.93  c0.99,0,1.75,0.17,2.28,0.51c0.53,0.34,0.8,0.88,0.8,1.64c0,0.37-0.05,0.65-0.15,0.85c-0.17,0.36-0.51,0.57-1.01,0.63l-3.5,0.44  c-1.23,0.15-2.22,0.57-2.97,1.23c-0.76,0.67-1.13,1.61-1.13,2.82c0,1.11,0.38,2.03,1.15,2.76c0.77,0.74,1.76,1.1,2.97,1.1  c1.01,0,1.93-0.22,2.77-0.65c0.84-0.43,1.48-0.94,1.93-1.53c0.07,0.52,0.2,0.92,0.38,1.21c0.34,0.54,0.89,0.8,1.65,0.8  c0.31,0,0.55-0.01,0.73-0.04s0.44-0.08,0.78-0.18v-1.62c-0.14,0.02-0.27,0.04-0.39,0.05C568.9,1178.29,568.79,1178.3,568.69,1178.3z   M565.76,1174.91c0,1.35-0.61,2.32-1.83,2.91c-0.72,0.36-1.47,0.54-2.24,0.54c-0.63,0-1.18-0.18-1.64-0.55  c-0.46-0.37-0.69-0.87-0.69-1.5c0-0.84,0.34-1.45,1.02-1.83c0.4-0.23,1-0.39,1.79-0.5l1.33-0.17c0.41-0.05,0.82-0.13,1.24-0.24  c0.42-0.12,0.77-0.26,1.03-0.43V1174.91z M525.91,1220.72c-0.87,0-1.64,0.31-2.31,0.94c-0.67,0.63-1.09,1.16-1.26,1.6v-2.26h-2.09  v13.08h2.2v-7.52c0-0.93,0.3-1.75,0.89-2.46c0.6-0.71,1.45-1.07,2.56-1.07c0.13,0,0.25,0,0.36,0.01c0.11,0.01,0.23,0.03,0.36,0.05  v-2.31c-0.24-0.02-0.4-0.04-0.5-0.05C526.02,1220.73,525.95,1220.72,525.91,1220.72z M552.28,1168.39  c-0.49-0.61-0.94-1.04-1.33-1.29c-0.67-0.42-1.51-0.64-2.51-0.64c-1.8,0-3.18,0.7-4.15,2.09c-0.97,1.39-1.45,3.04-1.45,4.95  c0,2.03,0.53,3.66,1.59,4.89c1.06,1.22,2.32,1.84,3.77,1.84c0.9,0,1.7-0.18,2.4-0.54c0.7-0.36,1.3-0.94,1.81-1.75v1.83h1.97v-18  h-2.11V1168.39z M551.38,1177c-0.65,0.87-1.48,1.31-2.5,1.31c-1.3,0-2.25-0.47-2.84-1.41c-0.59-0.94-0.89-2.11-0.89-3.51  c0-1.64,0.34-2.88,1.03-3.73c0.68-0.85,1.58-1.27,2.68-1.27c0.99,0,1.82,0.4,2.49,1.19c0.67,0.79,1.01,2.01,1.01,3.66  C552.35,1174.88,552.03,1176.13,551.38,1177z M562.17,1220.66c-0.78,0-1.51,0.17-2.18,0.5c-0.67,0.33-1.25,0.81-1.73,1.44v-6.51  h-2.14v18h2.03v-1.66c0.47,0.63,0.9,1.08,1.31,1.37c0.69,0.48,1.53,0.72,2.52,0.72c1.78,0,3.17-0.68,4.18-2.05  c1-1.37,1.51-3.09,1.51-5.16c0-2.18-0.51-3.83-1.52-4.95C565.13,1221.22,563.8,1220.66,562.17,1220.66z M564.52,1231.15  c-0.59,0.95-1.48,1.42-2.67,1.42c-1.58,0-2.66-0.72-3.24-2.16c-0.31-0.77-0.47-1.76-0.47-3c0-1.7,0.38-2.93,1.13-3.67  c0.75-0.74,1.63-1.11,2.64-1.11c1.15,0,2.02,0.45,2.61,1.36c0.59,0.91,0.89,2.05,0.89,3.42  C565.4,1228.96,565.11,1230.21,564.52,1231.15z M467.89,1189h-2.31v14.5l-8.96-14.5h-2.86v17.94h2.31v-14.51l9.09,14.51h2.72V1189z   M508.53,1180.24c0.66,0,1.26-0.06,1.78-0.19c0.98-0.23,1.8-0.67,2.46-1.32c0.4-0.37,0.75-0.86,1.08-1.45  c0.32-0.59,0.51-1.12,0.57-1.6h-2.16c-0.16,0.58-0.43,1.09-0.81,1.53c-0.68,0.76-1.59,1.14-2.73,1.14c-1.22,0-2.12-0.4-2.7-1.21  c-0.58-0.8-0.89-1.87-0.93-3.2h9.52c0-1.32-0.07-2.28-0.19-2.88c-0.15-0.88-0.44-1.64-0.87-2.3c-0.45-0.69-1.11-1.25-1.98-1.68  c-0.87-0.43-1.76-0.65-2.68-0.65c-1.83,0-3.31,0.65-4.44,1.96c-1.13,1.31-1.7,3.01-1.7,5.11c0,2.13,0.56,3.79,1.69,4.97  C505.54,1179.65,506.91,1180.24,508.53,1180.24z M506.21,1169.43c0.68-0.72,1.52-1.09,2.52-1.09c1.4,0,2.39,0.53,2.99,1.58  c0.32,0.57,0.53,1.32,0.62,2.27h-7.2C505.17,1171.07,505.53,1170.16,506.21,1169.43z M519.65,1172.27c0-0.93,0.3-1.75,0.89-2.46  c0.6-0.71,1.45-1.07,2.56-1.07c0.13,0,0.25,0,0.36,0.01c0.11,0.01,0.23,0.03,0.36,0.05v-2.31c-0.24-0.02-0.4-0.04-0.5-0.05  c-0.1-0.01-0.17-0.01-0.21-0.01c-0.87,0-1.64,0.31-2.31,0.94c-0.67,0.63-1.09,1.16-1.26,1.6v-2.26h-2.09v13.08h2.2V1172.27z   M500.16,1189h-2.23v2.48h2.23V1189z M496.67,1179.78l4.92-13.08h-2.4l-3.64,10.65l-3.5-10.65h-2.55l4.83,13.08H496.67z   M540.44,1161.85h-2.23v2.48h2.23V1161.85z M540.44,1166.77h-2.23v13.02h2.23V1166.77z M461.98,1222.69  c-0.49-0.61-0.94-1.04-1.33-1.29c-0.67-0.42-1.51-0.64-2.51-0.64c-1.8,0-3.18,0.7-4.15,2.09c-0.97,1.4-1.45,3.04-1.45,4.95  c0,2.03,0.53,3.66,1.59,4.89c1.06,1.22,2.32,1.84,3.77,1.84c0.9,0,1.7-0.18,2.4-0.54c0.7-0.36,1.3-0.94,1.81-1.75v1.83h1.97v-18  h-2.11V1222.69z M461.08,1231.3c-0.65,0.87-1.48,1.31-2.5,1.31c-1.3,0-2.25-0.47-2.84-1.41c-0.59-0.94-0.89-2.11-0.89-3.51  c0-1.64,0.34-2.88,1.03-3.73c0.68-0.84,1.58-1.27,2.68-1.27c0.99,0,1.82,0.4,2.49,1.19c0.67,0.79,1.01,2.01,1.01,3.66  C462.06,1229.18,461.73,1230.43,461.08,1231.3z M532.71,1177.89c-0.63,0.35-1.36,0.53-2.19,0.53c-1.4,0-2.38-0.35-2.94-1.06  c-0.31-0.39-0.49-0.95-0.56-1.69h-2.11c0.06,1.3,0.5,2.4,1.32,3.28c0.82,0.88,2.21,1.33,4.18,1.33c1.83,0,3.19-0.42,4.08-1.27  c0.89-0.85,1.34-1.85,1.34-3.02c0-1.21-0.43-2.09-1.28-2.65c-0.55-0.36-1.63-0.73-3.24-1.11l-1.48-0.35  c-0.65-0.15-1.14-0.33-1.47-0.54c-0.58-0.34-0.86-0.8-0.86-1.36c0-0.52,0.22-0.94,0.66-1.25s1.08-0.48,1.93-0.48  c1.27,0,2.17,0.29,2.69,0.87c0.32,0.41,0.5,0.86,0.54,1.35h2.08c0.02-0.85-0.25-1.64-0.8-2.37c-0.88-1.16-2.32-1.74-4.32-1.74  c-1.53,0-2.74,0.38-3.64,1.15c-0.9,0.77-1.36,1.77-1.36,3c0,1.05,0.48,1.87,1.44,2.47c0.54,0.34,1.37,0.65,2.51,0.93l1.77,0.44  c0.95,0.24,1.59,0.44,1.91,0.62c0.5,0.29,0.76,0.72,0.76,1.28C533.66,1176.99,533.34,1177.54,532.71,1177.89z M478.3,1225.36  c-0.15-0.88-0.44-1.64-0.87-2.3c-0.45-0.69-1.11-1.25-1.98-1.69c-0.87-0.43-1.76-0.65-2.68-0.65c-1.83,0-3.31,0.65-4.44,1.96  s-1.7,3.01-1.7,5.11c0,2.13,0.56,3.79,1.69,4.97c1.12,1.18,2.5,1.77,4.11,1.77c0.66,0,1.26-0.07,1.78-0.2  c0.98-0.23,1.8-0.67,2.46-1.32c0.4-0.37,0.75-0.86,1.08-1.45c0.32-0.59,0.51-1.12,0.57-1.6h-2.16c-0.16,0.58-0.43,1.09-0.81,1.53  c-0.68,0.76-1.59,1.14-2.73,1.14c-1.22,0-2.12-0.4-2.7-1.21c-0.58-0.8-0.89-1.87-0.93-3.2h9.52  C478.49,1226.92,478.43,1225.96,478.3,1225.36z M469.03,1226.49c0.04-1.12,0.4-2.04,1.08-2.76c0.68-0.72,1.52-1.08,2.52-1.08  c1.4,0,2.39,0.53,2.99,1.58c0.32,0.57,0.53,1.32,0.62,2.27H469.03z M473.72,1172.94c0-0.85,0.05-1.51,0.16-1.97  c0.11-0.46,0.35-0.9,0.71-1.34c0.46-0.54,0.98-0.89,1.59-1.07c0.33-0.11,0.76-0.16,1.28-0.16c1.02,0,1.73,0.41,2.12,1.22  c0.24,0.49,0.35,1.13,0.35,1.93v8.23h2.23v-8.38c0-1.32-0.18-2.33-0.54-3.04c-0.65-1.29-1.9-1.94-3.76-1.94  c-0.85,0-1.61,0.17-2.31,0.5c-0.69,0.33-1.35,0.89-1.96,1.65v-1.87h-2.09v13.08h2.2V1172.94z M487.66,1166.77h-2.23v13.02h2.23  V1166.77z M487.66,1161.85h-2.23v2.48h2.23V1161.85z M461.01,1180.25c3.03,0,5.1-1.08,6.19-3.25c0.6-1.19,0.89-2.88,0.89-5.09  v-10.07h-2.45v11.08c0,1.29-0.2,2.32-0.6,3.09c-0.75,1.41-2.15,2.11-4.23,2.11c-1.73,0-2.96-0.65-3.69-1.95  c-0.49-0.86-0.74-1.94-0.74-3.25v-11.08h-2.45v10.07c0,2.21,0.3,3.9,0.89,5.09C455.91,1179.17,457.97,1180.25,461.01,1180.25z   M497.92,1206.93h2.23v-13.02h-2.23V1206.93z M373.88,1174.3l-15.96-16.55h-0.45v25.58h4.2v-15.75l15.99,16.56h0.46v-25.59h-4.23  V1174.3z M347.74,1172.9c0,4.87-2.06,7.35-5.95,7.35c-3.95,0-6.02-2.45-6.02-7.25v-14.45h-4.41v14.49c0,7.25,3.85,11.1,10.33,11.1  c5.91,0,9.94-3.92,9.94-11.17v-14.42h-3.88V1172.9z M387.04,1170.9c0-5.46,3.57-9.17,8.4-9.17c2.45,0,4.58,1.05,6.54,3.15l0.46-4.83  c-2.28-1.58-4.66-2.34-7.28-2.34c-7.17,0-12.6,5.6-12.6,13.23c0,4.34,1.75,8.05,4.79,10.5c2.17,1.75,4.87,2.7,7.7,2.7  c2.69,0,5.25-0.84,7.45-2.42l0.25-5.5c-2.42,2.45-4.79,3.67-7.56,3.67C390.44,1179.9,387.04,1176.12,387.04,1170.9z M236.83,1152.72  h0.77c0,0,0-1.21,0-1.33c0.11,0,0.67,0,0.67,0v-0.66c0,0-0.56,0-0.67,0c0-0.11,0-0.67,0-0.67h-0.77c0,0,0,0.55,0,0.67  c-0.11,0-0.67,0-0.67,0v0.66c0,0,0.56,0,0.67,0C236.83,1151.51,236.83,1152.72,236.83,1152.72z M234.51,1156.12h0.77v-3.18h-0.77  V1156.12z M240.91,1154.45c-0.1-0.08-0.19-0.15-0.42-0.21l-0.54-0.12c-0.15-0.04-0.2-0.07-0.25-0.1l-0.04-0.02  c-0.08-0.04-0.11-0.1-0.11-0.18c0-0.1,0.04-0.17,0.12-0.22c0.09-0.06,0.21-0.09,0.36-0.09c0.25,0,0.51,0.15,0.65,0.28l0.06,0.06  l0.35-0.61l-0.05-0.04c-0.23-0.17-0.58-0.37-0.97-0.37c-0.4,0-0.72,0.1-0.93,0.29c-0.21,0.19-0.32,0.44-0.32,0.73  c0,0.32,0.11,0.56,0.34,0.71c0.14,0.09,0.27,0.17,0.59,0.24l0.33,0.07c0.14,0.03,0.19,0.06,0.25,0.1l0.05,0.03  c0.07,0.04,0.1,0.1,0.1,0.18c0,0.14-0.07,0.23-0.23,0.29c-0.09,0.03-0.21,0.05-0.35,0.05c-0.28,0-0.61-0.19-0.7-0.3l-0.06-0.07  l-0.35,0.6l0.04,0.04c0.22,0.18,0.59,0.39,1.09,0.39c0.41,0,0.73-0.1,0.95-0.29c0.23-0.2,0.34-0.45,0.34-0.74  c0-0.29-0.1-0.52-0.29-0.67L240.91,1154.45z M237.73,1154.1h-1.04c0-0.12,0-1.16,0-1.16h-0.77v3.18h0.77c0,0,0-1.24,0-1.36h1.04  c0,0.12,0,1.36,0,1.36h0.77v-3.18h-0.77C237.73,1152.93,237.73,1153.98,237.73,1154.1z M232.02,1168.42c0,0-1.5,0-1.87,0  c-0.26-0.26-1.32-1.32-1.32-1.32s-1.06,1.06-1.32,1.32c-0.37,0-1.87,0-1.87,0s0,1.5,0,1.87c-0.26,0.26-1.32,1.32-1.32,1.32  s1.06,1.06,1.32,1.32c0,0.36,0,1.87,0,1.87s1.5,0,1.87,0c0.26,0.26,1.32,1.32,1.32,1.32s1.06-1.06,1.32-1.32c0.37,0,1.87,0,1.87,0  s0-1.5,0-1.87c0.26-0.26,1.32-1.32,1.32-1.32s-1.06-1.06-1.32-1.32C232.02,1169.92,232.02,1168.42,232.02,1168.42z M230.69,1172.38  c0,0,0,0.69,0,1.09c-0.4,0-1.09,0-1.09,0s-0.48,0.48-0.77,0.77c-0.28-0.29-0.77-0.77-0.77-0.77s-0.69,0-1.09,0c0-0.4,0-1.09,0-1.09  s-0.49-0.49-0.77-0.77c0.29-0.29,0.77-0.77,0.77-0.77s0-0.69,0-1.09c0.4,0,1.09,0,1.09,0s0.49-0.48,0.77-0.77  c0.29,0.29,0.77,0.77,0.77,0.77s0.69,0,1.09,0c0,0.4,0,1.09,0,1.09s0.49,0.49,0.77,0.77  C231.18,1171.89,230.69,1172.38,230.69,1172.38z M232.99,1201.11c0.03,0.02,0.05,0.04,0.08,0.07c0.41,0.32,0.81,0.6,1.21,0.82  c1.53-0.81,2.57-2.41,2.57-4.26h-1.31C235.54,1199.35,234.46,1200.7,232.99,1201.11z M234.88,1196.48h-1.31  c0,1.42-0.84,2.64-2.05,3.19c0.31,0.36,0.63,0.69,0.95,0.98C233.9,1199.82,234.88,1198.27,234.88,1196.48z M266.31,1174.32h-4.21  c-0.58-1.03-1.41-1.8-2.47-2.27c1.48-0.4,2.51-1.6,2.51-3.01c0-0.06,0-0.13-0.01-0.19c-0.1-1.54-1.09-3.28-3.51-3.29  c-0.11-0.24-0.28-0.72-0.34-1.62c-0.01-0.1-0.01-0.2-0.01-0.3c0-1.09,0.36-2.37,0.77-3.84c0.51-1.84,1.09-3.9,1.09-6.13  c0-0.27-0.01-0.54-0.03-0.82c-0.19-2.91-1.29-5.33-3.18-6.99c-1.91-1.67-4.56-2.49-7.47-2.29c-0.52,0.03-1.02,0.12-1.49,0.26  c0.46-0.33,0.81-0.7,1.01-1.09l5.12-8.69l-0.81-1.71l-1.9,0.09c0,0-0.33,0.54-0.47,0.78c-0.24-0.14-0.81-0.48-0.81-0.48l-1.62,0.91  l0.1,1.82c0,0,0.5,0.32,0.71,0.45c-0.17,0.28-0.22,0.37-0.4,0.67c-0.62-0.44-1.65-1.11-2.91-1.65c0.14-0.53,0.29-1.09,0.45-1.67  c0.3,0.08,0.94,0.26,0.94,0.26l1.48-1.29l-0.62-1.86c0,0-0.65-0.18-0.95-0.26c0.08-0.3,0.26-0.95,0.26-0.95l-1.29-1.48l-1.86,0.62  c0,0-0.18,0.65-0.26,0.95c-0.3-0.08-0.94-0.26-0.94-0.26l-1.5,1.28l0.64,1.87c0,0,0.64,0.18,0.94,0.26  c-0.15,0.54-0.27,0.98-0.41,1.51c-0.76-0.17-2.13-0.44-3.73-0.56v-1.94c0.39,0,1.14,0,1.14,0l1.25-1.88l-1.25-1.88  c0,0-0.75,0-1.14,0c0-0.39,0-1.12,0-1.12l-1.88-1.34l-1.88,1.34c0,0,0,0.74,0,1.12c-0.39,0-1.14,0-1.14,0l-1.25,1.88l1.25,1.88  c0,0,0.75,0,1.14,0v1.94c-1.59,0.12-2.96,0.39-3.73,0.56c-0.14-0.52-0.27-0.97-0.41-1.51c0.3-0.08,0.94-0.26,0.94-0.26l0.64-1.87  l-1.5-1.28c0,0-0.64,0.18-0.94,0.26c-0.08-0.3-0.26-0.95-0.26-0.95l-1.86-0.62l-1.29,1.48c0,0,0.18,0.65,0.26,0.95  c-0.3,0.08-0.95,0.26-0.95,0.26l-0.62,1.86l1.48,1.29c0,0,0.64-0.18,0.94-0.26c0.16,0.58,0.31,1.14,0.45,1.67  c-1.25,0.54-2.29,1.21-2.91,1.65c-0.18-0.3-0.23-0.39-0.4-0.67c0.21-0.13,0.71-0.45,0.71-0.45l0.1-1.82l-1.62-0.91  c0,0-0.57,0.34-0.81,0.48c-0.14-0.24-0.47-0.78-0.47-0.78l-1.9-0.09l-0.81,1.71l5.11,8.67c0.2,0.4,0.55,0.77,1.02,1.11  c-0.47-0.13-0.97-0.22-1.49-0.25c-2.91-0.19-5.56,0.62-7.47,2.29c-1.89,1.66-2.99,4.07-3.18,6.99c-0.02,0.27-0.03,0.55-0.03,0.82  c0,2.23,0.58,4.29,1.09,6.13c0.41,1.47,0.77,2.75,0.77,3.84c0,0.1,0,0.2-0.01,0.3c-0.06,0.9-0.23,1.39-0.34,1.62  c-2.42,0.01-3.41,1.75-3.51,3.29c-0.01,0.06-0.01,0.13-0.01,0.19c0,1.41,1.03,2.61,2.51,3.01c-1.06,0.47-1.89,1.24-2.47,2.27h-4.21  l-3.96,3.96l3.51,3.51c-0.15,2.49-0.58,4.27-1.4,5.94c-0.92,1.88-0.99,4.27-0.99,4.96c0,1.71,0.47,6.05,4.81,9.52  c2.01,1.61,3.71,1.96,5.34,2.31c1.14,0.24,2.21,0.47,3.46,1.09c2.76,1.38,3.72,2.63,4.49,3.63l0.15,0.19  c4.8,6.19,11.14,6.86,13.63,6.86s8.83-0.67,13.63-6.86l0.15-0.19c0.77-1,1.73-2.26,4.49-3.63c1.25-0.62,2.33-0.85,3.46-1.09  c1.64-0.35,3.33-0.71,5.34-2.31c4.34-3.47,4.81-7.82,4.81-9.52c0-0.69-0.07-3.08-0.99-4.96c-0.82-1.68-1.25-3.45-1.4-5.94l3.51-3.51  L266.31,1174.32z M260.94,1174.98c0.06,0.1,0.11,0.2,0.16,0.3c0.05,0.12,0.11,0.24,0.15,0.36c0.35,0.91,0.46,1.93,0.46,2.88  c0,1.72-0.4,3.76-0.97,5.82c-1.07,3.81-2.74,7.67-3.65,9.64c-0.35-0.84-0.94-2.24-0.94-2.24s-1.56,0.41-2.54,0.66  c0.99-1.55,2.65-4.18,4.45-7.1c1.18-1.92,2.03-4.6,2.03-6.88c0-0.92-0.14-1.77-0.45-2.48c-0.07-0.17-0.15-0.34-0.25-0.5  c0,0,0-0.01,0-0.01l0,0c-0.51-0.84-1.39-1.46-2.57-1.46c-1.59,0-2.65,1.32-2.65,2.55h1.33c0-0.04,0-0.08,0.01-0.12  c0.07-0.5,0.52-1.09,1.31-1.09c0.59,0,1.01,0.26,1.28,0.61c0.07,0.09,0.13,0.17,0.18,0.27c0.04,0.07,0.07,0.14,0.1,0.21  c0.12,0.28,0.17,0.57,0.17,0.82c0,1.48-1.01,2.44-2.57,2.44c-1.79,0-3.09-1.33-3.09-3.17c0-1.48,1.22-3.66,3.84-3.66  C258.97,1172.81,260.24,1173.73,260.94,1174.98z M223.13,1176.74c0.05-6.17,1.15-12.01,3.12-16.78v6.67c0,0,2.04-2.04,2.58-2.58  c0.54,0.54,2.58,2.6,2.58,2.6v-5.89l12.51,8.25h-10.1c0,0,2.04,2.04,2.57,2.58c-0.53,0.54-2.57,2.58-2.57,2.58l17.5,0  c0.05,0.85,0.08,1.7,0.08,2.56H223.13z M251.4,1178.07c-0.11,7.13-1.61,13.79-4.25,18.84c-2.68,5.11-6.19,7.93-9.88,7.93  s-7.2-2.82-9.88-7.93c-2.64-5.05-4.14-11.71-4.25-18.84H251.4z M219.42,1161.45c-0.36-1.58-0.72-3.21-0.72-5.35  c0-0.41,0.01-0.84,0.04-1.29c0.24-3.56,2.32-5.07,3.54-5.65c0.38-0.18,0.77-0.31,1.16-0.41c-0.42,0.54-0.7,1.23-0.74,1.92  c-0.01,0.1-0.01,0.2-0.01,0.3c0,2.09,1.49,3.63,3.71,3.77c0.38,0.03,0.75,0.01,1.11-0.05c-0.45,0.69-0.89,1.43-1.3,2.22  c-2.38,4.54-3.86,10.32-4.29,16.57c-0.85-1.11-2.18-1.93-3.88-2c0.94-0.73,1.79-2.17,1.97-4.97c0.02-0.26,0.03-0.52,0.03-0.78  C220.04,1164.2,219.74,1162.86,219.42,1161.45z M243.36,1150.49c0,0.03,0.01,0.06,0.01,0.09c-0.91-0.72-1.85-1.28-2.82-1.66  c-0.02-0.62,0.01-1.9,0.6-2.99c1.73-0.22,3.35-0.57,4.68-1.05c-0.31,0.24-0.61,0.52-0.87,0.82  C243.83,1146.98,243.25,1148.73,243.36,1150.49z M237.26,1144.84c-6.21,0-10.25-1.76-10.55-2.78c0,0,0,0,0,0  c-0.01-0.04-0.02-0.08-0.02-0.11c0-1.53,4.21-3.84,10.57-3.84c6.35,0,10.57,2.31,10.57,3.84  C247.83,1142.94,243.71,1144.84,237.26,1144.84z M239.63,1146.08c-0.32,0.89-0.4,1.77-0.41,2.42c-0.64-0.15-1.29-0.22-1.95-0.22  s-1.31,0.07-1.95,0.22c-0.01-0.64-0.1-1.53-0.41-2.42c0.79,0.06,1.58,0.09,2.37,0.09S238.84,1146.14,239.63,1146.08z   M233.38,1145.93c0.58,1.09,0.62,2.37,0.6,2.99c-0.97,0.39-1.92,0.94-2.82,1.66c0-0.03,0.01-0.06,0.01-0.09  c0.12-1.76-0.46-3.51-1.59-4.8c-0.27-0.3-0.56-0.58-0.87-0.82C230.03,1145.36,231.66,1145.71,233.38,1145.93z M237.26,1149.6  c3.69,0,7.2,2.82,9.88,7.93c1.44,2.76,2.54,6,3.27,9.53l-20.42-13.49C232.17,1150.99,234.67,1149.6,237.26,1149.6z M250.74,1168.88  c0.18,1.09,0.32,2.2,0.43,3.33l-23.37-15.43c0.44-0.78,0.9-1.5,1.38-2.15L250.74,1168.88z M237.02,1170.34c2.05,0,7.62,0,8.92,0  l3.79,2.5c-3.67,0-10.8,0-12.71,0c0.38-0.38,1.25-1.25,1.25-1.25S237.4,1170.72,237.02,1170.34z M230.08,1159.88v3.54  c-0.38-0.38-1.25-1.26-1.25-1.26s-0.88,0.87-1.25,1.25v-5.19L230.08,1159.88z M248.32,1156.91c-0.41-0.79-0.85-1.53-1.3-2.22  c0.36,0.06,0.73,0.08,1.12,0.05c2.22-0.15,3.7-1.68,3.7-3.77c0-0.1,0-0.2-0.01-0.3c-0.04-0.69-0.32-1.38-0.74-1.92  c0.39,0.09,0.78,0.23,1.16,0.41c1.22,0.58,3.31,2.08,3.54,5.65c0.03,0.45,0.04,0.88,0.04,1.29c0,2.14-0.37,3.77-0.73,5.35  c-0.32,1.41-0.62,2.75-0.62,4.3c0,0.25,0.01,0.51,0.03,0.78c0.19,2.8,1.04,4.24,1.97,4.97c-1.7,0.07-3.03,0.89-3.88,2  C252.18,1167.24,250.7,1161.46,248.32,1156.91z M249.54,1144.89c2.56-0.17,4.87,0.53,6.51,1.97c1.62,1.42,2.57,3.52,2.74,6.07  c0.15,2.31-0.47,4.54-1.02,6.5c-0.46,1.65-0.89,3.21-0.8,4.58c0.13,1.96,0.73,2.59,0.92,2.73l0.2,0.16l0.26-0.02  c2.1-0.14,2.43,1.38,2.48,2.04c0.06,1-0.85,1.84-2.08,1.92c-2.14,0.14-2.75-2.33-2.89-4.42c-0.11-1.69,0.2-3.09,0.56-4.7  c0.43-1.89,0.91-4.03,0.71-7.02c-0.2-3.1-1.77-5.56-4.3-6.76c-1.98-0.94-4.22-0.91-5.59,0.07l0.01,0.01  c-0.77,0.5-1.23,1.35-1.23,2.17c0,0.05,0,0.1,0,0.14l1.33-0.09c-0.04-0.52,0.39-1.28,1.27-1.34c0.47-0.03,0.88,0.1,1.21,0.39  c0.47,0.41,0.66,1.03,0.69,1.44c0.1,1.51-0.86,2.55-2.46,2.66c-0.9,0.06-1.7-0.19-2.31-0.72c-0.62-0.55-0.99-1.34-1.05-2.3  c-0.09-1.41,0.37-2.81,1.27-3.83C246.83,1145.57,248.07,1144.98,249.54,1144.89z M225.83,1140.56c-1.31-2.23-3.64-6.18-3.88-6.59  c0.06-0.12,0.07-0.14,0.13-0.27c0.14,0.01,0.17,0.01,0.3,0.01c0.18,0.31,0.79,1.31,0.79,1.31s0.98-0.59,1.29-0.77  c0.1,0.06,0.12,0.07,0.23,0.12c-0.01,0.15-0.01,0.17-0.02,0.31c-0.28,0.18-1.22,0.79-1.22,0.79l1.84,3.07l0.6-0.49  c0.02-0.01,1.63-1.34,3.7-2.11l0.57-0.21l-1.11-4.11c0,0-1.19,0.33-1.55,0.42c-0.12-0.1-0.15-0.13-0.28-0.24  c0.05-0.16,0.07-0.2,0.11-0.35c0.36-0.1,1.54-0.42,1.54-0.42s-0.33-1.18-0.42-1.54c0.1-0.12,0.13-0.15,0.24-0.28  c0.16,0.05,0.2,0.07,0.35,0.12c0.1,0.36,0.42,1.54,0.42,1.54s1.19-0.33,1.54-0.42c0.12,0.1,0.15,0.13,0.28,0.24  c-0.06,0.17-0.07,0.2-0.12,0.35c-0.36,0.1-1.55,0.42-1.55,0.42l1.11,4.05l0.64-0.18c0.02-0.01,2.18-0.59,4.72-0.72l0.63-0.03v-4.53  c0,0-1.35,0-1.76,0c-0.13-0.2-0.21-0.31-0.36-0.55c0.15-0.23,0.23-0.34,0.36-0.55c0.4,0,1.76,0,1.76,0s0-1.37,0-1.77  c0.19-0.14,0.31-0.22,0.55-0.39c0.24,0.17,0.35,0.25,0.55,0.39c0,0.4,0,1.77,0,1.77s1.35,0,1.76,0c0.14,0.2,0.21,0.31,0.36,0.55  c-0.15,0.23-0.23,0.34-0.36,0.55c-0.4,0-1.76,0-1.76,0v4.53l0.63,0.03c2.54,0.13,4.7,0.71,4.72,0.72l0.64,0.18l1.11-4.05  c0,0-1.19-0.33-1.55-0.42c-0.05-0.15-0.06-0.18-0.12-0.35c0.13-0.11,0.16-0.14,0.28-0.24c0.36,0.1,1.54,0.42,1.54,0.42  s0.32-1.18,0.42-1.54c0.15-0.05,0.18-0.06,0.35-0.12c0.11,0.13,0.14,0.16,0.24,0.28c-0.1,0.36-0.42,1.54-0.42,1.54  s1.18,0.33,1.54,0.42c0.05,0.15,0.06,0.18,0.11,0.35c-0.13,0.11-0.16,0.14-0.28,0.24c-0.36-0.1-1.55-0.42-1.55-0.42l-1.11,4.11  l0.57,0.21c2.07,0.78,3.69,2.1,3.7,2.11l0.6,0.49l0.4-0.66l1.44-2.41c0,0-0.94-0.6-1.22-0.79c-0.01-0.13-0.01-0.16-0.02-0.31  c0.11-0.06,0.12-0.07,0.22-0.12c0.31,0.19,1.29,0.77,1.29,0.77s0.6-1,0.79-1.31c0.13-0.01,0.16-0.01,0.3-0.01  c0.06,0.13,0.07,0.16,0.13,0.27c-0.24,0.4-2.57,4.36-3.88,6.59c-1.44-2.15-6.09-3.78-11.44-3.78S227.27,1138.4,225.83,1140.56z   M213.72,1168.93c0.04-0.66,0.37-2.18,2.48-2.04l0.26,0.02l0.2-0.16c0.18-0.15,0.79-0.77,0.92-2.73c0.09-1.37-0.34-2.93-0.8-4.58  c-0.55-1.96-1.17-4.19-1.02-6.5c0.17-2.55,1.11-4.65,2.74-6.07c1.64-1.44,3.95-2.14,6.51-1.97c1.46,0.1,2.7,0.68,3.58,1.68  c0.9,1.02,1.36,2.42,1.27,3.83c-0.06,0.96-0.43,1.75-1.05,2.3c-0.61,0.53-1.4,0.78-2.31,0.72c-1.59-0.11-2.56-1.15-2.46-2.66  c0.03-0.41,0.22-1.03,0.69-1.44c0.33-0.29,0.73-0.42,1.21-0.39c0.88,0.06,1.31,0.82,1.27,1.34l1.33,0.09c0-0.05,0-0.1,0-0.14  c0-0.82-0.46-1.67-1.23-2.17l0.01-0.01c-1.37-0.98-3.62-1-5.59-0.07c-2.53,1.2-4.09,3.66-4.3,6.76c-0.2,2.99,0.29,5.13,0.71,7.02  c0.36,1.61,0.68,3,0.56,4.7c-0.14,2.09-0.75,4.56-2.89,4.42C214.57,1170.77,213.66,1169.93,213.72,1168.93z M213.28,1175.64  c0.05-0.12,0.1-0.24,0.15-0.36c0.05-0.1,0.1-0.21,0.16-0.3c0.7-1.25,1.98-2.17,4.21-2.17c2.62,0,3.84,2.18,3.84,3.66  c0,1.84-1.3,3.17-3.09,3.17c-1.56,0-2.57-0.96-2.57-2.44c0-0.24,0.06-0.54,0.17-0.82c0.03-0.07,0.07-0.15,0.1-0.21  c0.05-0.09,0.11-0.18,0.18-0.27c0.27-0.35,0.69-0.61,1.28-0.61c0.8,0,1.25,0.6,1.32,1.09c0,0.04,0.01,0.08,0.01,0.12h1.33  c0-1.23-1.07-2.55-2.65-2.55c-1.17,0-2.05,0.62-2.57,1.46v0c0,0,0,0.01-0.01,0.01c-0.09,0.16-0.18,0.33-0.25,0.5  c-0.31,0.72-0.45,1.56-0.45,2.48c0,2.28,0.84,4.96,2.03,6.88c1.8,2.92,3.47,5.56,4.45,7.1c-0.98-0.25-2.54-0.66-2.54-0.66  s-0.58,1.4-0.93,2.24c-0.91-1.97-2.59-5.83-3.65-9.64c-0.58-2.06-0.97-4.1-0.97-5.82C212.81,1177.57,212.93,1176.55,213.28,1175.64z   M212.5,1189.31c0.24-0.6,0.49-1.22,0.64-1.84l0.03-0.12c0.02-0.09,0.04-0.17,0.06-0.26c1.53,4.56,3.51,8.56,3.65,8.83l0.65,1.3  c0,0,1.32-3.16,1.62-3.89c0.8,0.21,4.71,1.23,4.71,1.23l-0.92-1.43c-0.02-0.04-2.53-3.92-5.35-8.51c-0.85-1.37-1.42-3.01-1.68-4.53  c0.67,0.57,1.57,0.91,2.62,0.91c1.34,0,2.5-0.55,3.3-1.44c0.28,6.79,1.81,13.12,4.36,18c2.92,5.57,6.84,8.64,11.06,8.64  s8.14-3.07,11.06-8.64c2.56-4.89,4.08-11.21,4.36-18c0.8,0.9,1.96,1.44,3.3,1.44c1.05,0,1.95-0.34,2.63-0.91  c-0.25,1.52-0.83,3.16-1.68,4.53c-2.83,4.59-5.33,8.47-5.35,8.51l-0.92,1.43c0,0,3.92-1.02,4.71-1.23c0.3,0.73,1.62,3.89,1.62,3.89  l0.65-1.3c0.14-0.27,2.12-4.27,3.65-8.83c0.02,0.09,0.04,0.18,0.06,0.26l0.03,0.12c0.15,0.63,0.4,1.25,0.64,1.84  c0.42,1.05,0.86,2.13,0.86,3.38c0,0.8-0.26,4.82-5.42,5.82c-2.79,0.54-4.88,1.26-7.9,3.48c-1.84,1.35-2.86,2.66-3.61,3.62  c-0.25,0.33-0.47,0.61-0.68,0.84c-3.11,3.45-7.22,3.62-8.02,3.62c-0.79,0-4.91-0.17-8.02-3.62c-0.21-0.23-0.43-0.51-0.68-0.84  c-0.74-0.96-1.76-2.27-3.61-3.62c-3.02-2.22-5.11-2.93-7.9-3.48c-5.16-1-5.42-5.03-5.42-5.82  C211.64,1191.44,212.08,1190.36,212.5,1189.31z M206.14,1178.28l1.69-1.69v2.97c0,0.14,0,0.28,0,0.41L206.14,1178.28z   M266.96,1188.31c0.63,1.29,0.86,3.1,0.86,4.37c0,1.51-0.42,5.38-4.31,8.48c-1.76,1.41-3.23,1.72-4.79,2.05  c-1.17,0.25-2.38,0.51-3.78,1.2c-3.03,1.51-4.14,2.96-4.95,4.01l-0.14,0.18c-4.44,5.73-10.28,6.35-12.58,6.35s-8.14-0.62-12.58-6.35  l-0.14-0.18c-0.81-1.05-1.92-2.5-4.95-4.01c-1.4-0.7-2.61-0.95-3.78-1.2c-1.56-0.33-3.03-0.64-4.79-2.05  c-3.89-3.11-4.31-6.97-4.31-8.48c0-1.27,0.23-3.09,0.86-4.37c1.15-2.34,1.59-4.8,1.59-8.76v-3.91h2.71  c-0.26,0.84-0.39,1.81-0.39,2.88c0,1.77,0.38,3.84,0.94,5.91c-0.16,1.05-0.37,1.87-0.55,2.6l-0.03,0.12  c-0.13,0.54-0.35,1.08-0.59,1.67c-0.45,1.11-0.95,2.37-0.95,3.88c0,2.71,1.7,6.2,6.49,7.13c2.66,0.52,4.53,1.16,7.37,3.24  c1.69,1.24,2.61,2.42,3.34,3.37c0.26,0.33,0.5,0.65,0.74,0.92c3.49,3.86,8.11,4.06,9,4.06s5.52-0.2,9-4.06  c0.24-0.27,0.49-0.58,0.74-0.92c0.73-0.95,1.65-2.12,3.34-3.37c2.84-2.08,4.71-2.73,7.37-3.24c4.79-0.93,6.5-4.42,6.5-7.13  c0-1.51-0.51-2.76-0.96-3.88c-0.23-0.58-0.45-1.13-0.59-1.67l-0.03-0.12c-0.18-0.73-0.38-1.55-0.55-2.6  c0.56-2.07,0.94-4.13,0.94-5.91c0-1.07-0.13-2.03-0.39-2.88h2.71v3.91C265.37,1183.52,265.82,1185.98,266.96,1188.31z   M266.7,1179.97c0-0.14,0-0.27,0-0.41v-2.97l1.69,1.69L266.7,1179.97z M172.06,1235.94H432.4v-130.17H172.06V1235.94z   M302.17,1107.54H430.4v126.21H302.17V1107.54z M173.84,1107.54h126.62v126.62H173.84V1107.54z M228.58,1191.51L228.58,1191.51  l-0.01,0.13c0,1.43,1.16,2.59,2.6,2.59l0.44,0v1.01c-0.01,1.12-0.54,2.11-1.37,2.75c0.25,0.38,0.51,0.73,0.77,1.06  c1.16-0.88,1.9-2.27,1.9-3.83v-2.28h-1.75c-0.71,0-1.29-0.58-1.29-1.29l0.01-0.14c0-0.58-0.39-1.08-0.92-1.24l0,0  c-0.5-0.18-0.85-0.66-0.85-1.21c0-0.03,0-0.16,0.03-0.28c0.02-0.07,0.06-0.16,0.06-0.39c0-0.49-0.27-0.91-0.67-1.13l0,0  c-1.06-0.6-1.77-1.74-1.77-3.05c0-0.25,0.02-0.49,0.07-0.72l4.17,1.18l4.27,5.07l2.21-1.96l0-2.92h-1.36c0,0,0.62-1.32,2.13-1.32  c1.4,0,2.11,1.01,2.35,1.96l1.01,3.79l3.88-4.61l4.17-1.18c0.05,0.23,0.08,0.47,0.08,0.72c0,1.3-0.71,2.44-1.77,3.05l0,0  c-0.4,0.22-0.67,0.64-0.67,1.13c0,0.22,0.04,0.31,0.06,0.39c0.03,0.12,0.03,0.24,0.03,0.28c0,0.56-0.36,1.04-0.85,1.21v0  c-0.53,0.16-0.92,0.65-0.92,1.24l0.01,0.14c0,0.71-0.58,1.29-1.3,1.29h-3.2c0,0,0.11,2.27-1.62,4.1c-0.39,0.41-0.98,1.52-0.33,2.89  c0.68,1.44,2.06,2.08,2.06,2.08c0.5-0.26,1.29-0.89,1.29-0.89c-1.17-0.34-1.8-1.09-2.19-1.79c-0.3-0.54-0.14-1.16,0.23-1.51  c0.51-0.48,1.1-1.5,1.34-2.12c0.31-0.79,0.43-1.47,0.43-1.47l1.98,0c1.43,0,2.6-1.16,2.6-2.59v-0.13h0  c1.03-0.35,1.77-1.32,1.77-2.46c0-0.22-0.03-0.44-0.08-0.65c1.46-0.83,2.44-2.4,2.44-4.19c0-0.83-0.21-1.61-0.58-2.3l-5.72,1.59  l-2.57,3.06c0,0-0.21-0.66-0.37-1.39c-0.35-1.55-1.46-2.21-1.46-2.21l1.36-2.96l-2.22,0.44l-1.23-1.67l-1.26,1.67l-2.18-0.45  l1.36,2.96c-0.89,0.61-1.54,1.63-1.54,2.97c0,0.1,0.01,0.27,0.01,0.27h1.52l0.01,0.97l-0.75,0.68l-3.65-4.34l-5.72-1.59  c-0.37,0.68-0.58,1.46-0.58,2.3c0,1.8,0.98,3.36,2.44,4.19c-0.05,0.21-0.08,0.42-0.08,0.65  C226.81,1190.19,227.55,1191.16,228.58,1191.51z M236.64,1181.91l0.6-0.85l0.6,0.85l0.61-0.12l-0.29,0.62c0,0-0.51-0.12-0.92-0.12  s-0.92,0.12-0.92,0.12l-0.28-0.62L236.64,1181.91z"/>
<g>
	<rect x="7.21" y="8.85" class="st0" width="126.62" height="126.62"/>
	<g>
		<g>
			<path class="st1" d="M289.76,63.16v11.08c0,1.3,0.25,2.38,0.74,3.25c0.73,1.3,1.96,1.95,3.68,1.95c2.07,0,3.48-0.7,4.23-2.11     c0.4-0.77,0.6-1.79,0.6-3.09V63.16h2.45v10.07c0,2.21-0.3,3.9-0.89,5.09c-1.09,2.16-3.16,3.25-6.19,3.25     c-3.03,0-5.09-1.08-6.18-3.25c-0.6-1.19-0.89-2.88-0.89-5.09V63.16H289.76z"/>
			<path class="st1" d="M304.89,68.02h2.09v1.87c0.62-0.77,1.27-1.32,1.96-1.65c0.69-0.33,1.46-0.5,2.31-0.5     c1.85,0,3.11,0.65,3.76,1.94c0.36,0.71,0.54,1.72,0.54,3.04v8.38h-2.23v-8.23c0-0.8-0.12-1.44-0.35-1.93     c-0.39-0.81-1.1-1.22-2.12-1.22c-0.52,0-0.95,0.05-1.28,0.16c-0.6,0.18-1.13,0.54-1.58,1.07c-0.37,0.43-0.6,0.88-0.71,1.34     c-0.11,0.46-0.16,1.12-0.16,1.97v6.84h-2.2V68.02z"/>
			<path class="st1" d="M318.8,63.16h2.23v2.48h-2.23V63.16z M318.8,68.08h2.23V81.1h-2.23V68.08z"/>
			<path class="st1" d="M325.43,68.02l3.5,10.65l3.64-10.65h2.4l-4.93,13.08h-2.34l-4.83-13.08H325.43z"/>
			<path class="st1" d="M344.93,68.39c0.87,0.43,1.53,1,1.98,1.68c0.44,0.66,0.73,1.42,0.87,2.3c0.13,0.6,0.19,1.56,0.19,2.88h-9.52     c0.04,1.33,0.35,2.4,0.93,3.2c0.58,0.8,1.48,1.21,2.7,1.21c1.14,0,2.05-0.38,2.73-1.14c0.38-0.44,0.65-0.95,0.81-1.53h2.16     c-0.06,0.48-0.25,1.01-0.57,1.6c-0.32,0.59-0.68,1.07-1.08,1.45c-0.66,0.65-1.48,1.09-2.46,1.32c-0.53,0.13-1.12,0.19-1.78,0.19     c-1.62,0-2.99-0.59-4.11-1.77c-1.12-1.18-1.69-2.84-1.69-4.97c0-2.1,0.57-3.8,1.7-5.11c1.13-1.31,2.61-1.96,4.44-1.96     C343.17,67.74,344.06,67.95,344.93,68.39z M345.71,73.5c-0.09-0.95-0.29-1.7-0.62-2.27c-0.6-1.05-1.59-1.58-2.99-1.58     c-1,0-1.84,0.36-2.52,1.09c-0.68,0.72-1.04,1.64-1.08,2.76H345.71z"/>
			<path class="st1" d="M350.82,68.02h2.09v2.26c0.17-0.44,0.59-0.97,1.26-1.6c0.67-0.63,1.44-0.94,2.31-0.94     c0.04,0,0.11,0,0.21,0.01c0.1,0.01,0.27,0.03,0.5,0.05v2.31c-0.13-0.02-0.25-0.04-0.36-0.05c-0.11-0.01-0.23-0.01-0.36-0.01     c-1.11,0-1.96,0.36-2.56,1.07c-0.59,0.71-0.89,1.53-0.89,2.46v7.52h-2.2V68.02z"/>
			<path class="st1" d="M360.39,76.99c0.07,0.73,0.25,1.29,0.56,1.69c0.56,0.71,1.54,1.06,2.94,1.06c0.83,0,1.56-0.18,2.19-0.53     c0.63-0.35,0.95-0.9,0.95-1.64c0-0.56-0.25-0.99-0.76-1.28c-0.32-0.18-0.96-0.39-1.91-0.62l-1.77-0.44     c-1.13-0.28-1.97-0.59-2.51-0.93c-0.96-0.59-1.44-1.42-1.44-2.47c0-1.24,0.45-2.24,1.36-3c0.9-0.76,2.12-1.15,3.65-1.15     c2,0,3.44,0.58,4.32,1.74c0.55,0.73,0.82,1.52,0.8,2.37h-2.08c-0.04-0.5-0.22-0.95-0.54-1.35c-0.52-0.58-1.41-0.87-2.69-0.87     c-0.85,0-1.49,0.16-1.93,0.48s-0.66,0.73-0.66,1.25c0,0.57,0.29,1.02,0.86,1.36c0.33,0.2,0.82,0.38,1.47,0.54l1.48,0.35     c1.61,0.38,2.69,0.75,3.24,1.11c0.85,0.56,1.28,1.44,1.28,2.65c0,1.16-0.45,2.17-1.34,3.02c-0.89,0.85-2.25,1.27-4.08,1.27     c-1.97,0-3.36-0.44-4.18-1.33c-0.82-0.88-1.26-1.98-1.32-3.28H360.39z"/>
			<path class="st1" d="M371.58,63.16h2.23v2.48h-2.23V63.16z M371.58,68.08h2.23V81.1h-2.23V68.08z"/>
			<path class="st1" d="M384.32,68.42c0.39,0.25,0.83,0.67,1.33,1.29V63.1h2.11v18h-1.97v-1.83c-0.51,0.81-1.12,1.39-1.81,1.75     c-0.7,0.36-1.5,0.54-2.4,0.54c-1.45,0-2.71-0.61-3.77-1.84c-1.06-1.22-1.59-2.85-1.59-4.89c0-1.9,0.48-3.55,1.45-4.95     c0.97-1.4,2.35-2.09,4.15-2.09C382.82,67.78,383.65,68,384.32,68.42z M379.41,78.21c0.59,0.94,1.54,1.41,2.84,1.41     c1.01,0,1.84-0.44,2.5-1.31c0.65-0.87,0.98-2.13,0.98-3.76c0-1.65-0.34-2.87-1.01-3.66c-0.67-0.79-1.5-1.19-2.49-1.19     c-1.1,0-1.99,0.42-2.68,1.27c-0.68,0.84-1.03,2.09-1.03,3.73C378.52,76.1,378.82,77.27,379.41,78.21z"/>
			<path class="st1" d="M398.03,73.19c0.5-0.07,0.84-0.28,1.01-0.63c0.1-0.2,0.15-0.48,0.15-0.85c0-0.75-0.27-1.3-0.8-1.64     c-0.53-0.34-1.29-0.51-2.28-0.51c-1.14,0-1.95,0.31-2.43,0.93c-0.27,0.34-0.44,0.86-0.52,1.54h-2.05     c0.04-1.62,0.56-2.75,1.56-3.38s2.17-0.95,3.49-0.95c1.53,0,2.78,0.29,3.74,0.88c0.95,0.59,1.42,1.5,1.42,2.74v7.53     c0,0.23,0.05,0.41,0.14,0.55c0.09,0.14,0.29,0.21,0.59,0.21c0.1,0,0.21-0.01,0.33-0.02c0.12-0.01,0.25-0.03,0.39-0.05v1.62     c-0.34,0.1-0.6,0.16-0.78,0.18c-0.18,0.02-0.42,0.04-0.73,0.04c-0.76,0-1.31-0.27-1.65-0.8c-0.18-0.28-0.31-0.69-0.38-1.21     c-0.45,0.59-1.09,1.1-1.93,1.53c-0.84,0.43-1.76,0.65-2.77,0.65c-1.21,0-2.2-0.37-2.97-1.1c-0.77-0.74-1.15-1.66-1.15-2.76     c0-1.21,0.38-2.15,1.13-2.82c0.76-0.67,1.75-1.08,2.97-1.23L398.03,73.19z M393.42,79.13c0.46,0.37,1.01,0.55,1.64,0.55     c0.77,0,1.52-0.18,2.24-0.54c1.22-0.59,1.83-1.56,1.83-2.91v-1.77c-0.27,0.17-0.61,0.32-1.03,0.43c-0.42,0.12-0.84,0.2-1.24,0.25     l-1.33,0.17c-0.79,0.1-1.39,0.27-1.79,0.5c-0.68,0.38-1.02,0.99-1.02,1.83C392.72,78.26,392.96,78.76,393.42,79.13z"/>
			<path class="st1" d="M412.13,68.42c0.39,0.25,0.83,0.67,1.33,1.29V63.1h2.11v18h-1.97v-1.83c-0.51,0.81-1.12,1.39-1.81,1.75     c-0.7,0.36-1.5,0.54-2.4,0.54c-1.45,0-2.71-0.61-3.77-1.84c-1.06-1.22-1.59-2.85-1.59-4.89c0-1.9,0.48-3.55,1.45-4.95     c0.97-1.4,2.35-2.09,4.15-2.09C410.62,67.78,411.46,68,412.13,68.42z M407.22,78.21c0.59,0.94,1.54,1.41,2.84,1.41     c1.01,0,1.84-0.44,2.5-1.31c0.65-0.87,0.98-2.13,0.98-3.76c0-1.65-0.34-2.87-1.01-3.66c-0.67-0.79-1.5-1.19-2.49-1.19     c-1.1,0-1.99,0.42-2.68,1.27c-0.68,0.84-1.03,2.09-1.03,3.73C406.33,76.1,406.63,77.27,407.22,78.21z"/>
			<path class="st1" d="M287.14,90.31h2.86l8.96,14.5v-14.5h2.31v17.94h-2.72l-9.09-14.51v14.51h-2.31V90.31z"/>
			<path class="st1" d="M311.89,100.34c0.5-0.07,0.84-0.28,1.01-0.63c0.1-0.2,0.15-0.48,0.15-0.85c0-0.75-0.27-1.3-0.8-1.64     c-0.53-0.34-1.29-0.51-2.28-0.51c-1.14,0-1.95,0.31-2.43,0.93c-0.27,0.34-0.44,0.86-0.52,1.54h-2.05     c0.04-1.62,0.56-2.75,1.57-3.38c1-0.63,2.17-0.95,3.49-0.95c1.53,0,2.78,0.29,3.74,0.88c0.95,0.59,1.43,1.5,1.43,2.74v7.53     c0,0.23,0.05,0.41,0.14,0.55c0.09,0.14,0.29,0.21,0.59,0.21c0.1,0,0.21-0.01,0.33-0.02c0.12-0.01,0.25-0.03,0.39-0.05v1.62     c-0.34,0.1-0.6,0.16-0.78,0.18c-0.18,0.02-0.42,0.04-0.73,0.04c-0.76,0-1.31-0.27-1.65-0.8c-0.18-0.28-0.31-0.69-0.38-1.21     c-0.45,0.59-1.09,1.1-1.93,1.53c-0.84,0.43-1.76,0.65-2.77,0.65c-1.21,0-2.2-0.37-2.97-1.1c-0.77-0.74-1.15-1.66-1.15-2.76     c0-1.21,0.38-2.15,1.13-2.82c0.76-0.67,1.75-1.08,2.97-1.23L311.89,100.34z M307.27,106.28c0.46,0.37,1.01,0.55,1.64,0.55     c0.77,0,1.52-0.18,2.24-0.54c1.22-0.59,1.83-1.56,1.83-2.91v-1.77c-0.27,0.17-0.61,0.32-1.03,0.43c-0.42,0.12-0.83,0.2-1.24,0.25     l-1.33,0.17c-0.79,0.1-1.39,0.27-1.79,0.5c-0.68,0.38-1.02,0.99-1.02,1.83C306.58,105.41,306.81,105.91,307.27,106.28z"/>
			<path class="st1" d="M327.43,95.87c0.92,0.71,1.48,1.95,1.67,3.69h-2.14c-0.13-0.8-0.43-1.47-0.89-2     c-0.46-0.53-1.21-0.8-2.23-0.8c-1.4,0-2.4,0.68-3,2.05c-0.39,0.89-0.58,1.98-0.58,3.28c0,1.31,0.28,2.41,0.83,3.3     c0.55,0.89,1.42,1.34,2.61,1.34c0.91,0,1.63-0.28,2.16-0.83c0.53-0.55,0.9-1.31,1.1-2.28h2.14c-0.24,1.73-0.85,3-1.83,3.8     c-0.98,0.8-2.22,1.2-3.75,1.2c-1.71,0-3.07-0.62-4.09-1.87c-1.02-1.25-1.52-2.81-1.52-4.68c0-2.29,0.56-4.08,1.67-5.36     c1.11-1.28,2.53-1.92,4.26-1.92C325.31,94.79,326.5,95.15,327.43,95.87z"/>
			<path class="st1" d="M331.3,90.31h2.23v2.48h-2.23V90.31z M331.3,95.23h2.23v13.02h-2.23V95.23z"/>
			<path class="st1" d="M346.32,96.48c1.15,1.12,1.73,2.77,1.73,4.95c0,2.11-0.51,3.85-1.53,5.22c-1.02,1.38-2.6,2.06-4.74,2.06     c-1.79,0-3.2-0.61-4.25-1.82c-1.05-1.22-1.58-2.85-1.58-4.9c0-2.2,0.55-3.94,1.66-5.25c1.11-1.3,2.59-1.95,4.46-1.95     C343.75,94.79,345.17,95.35,346.32,96.48z M344.96,105.17c0.53-1.1,0.8-2.33,0.8-3.68c0-1.22-0.19-2.21-0.58-2.98     c-0.61-1.2-1.66-1.81-3.16-1.81c-1.33,0-2.29,0.51-2.89,1.54c-0.6,1.02-0.9,2.26-0.9,3.71c0,1.39,0.3,2.55,0.9,3.48     c0.6,0.93,1.56,1.39,2.87,1.39C343.43,106.83,344.42,106.27,344.96,105.17z"/>
			<path class="st1" d="M350.75,95.17h2.09v1.87c0.62-0.77,1.27-1.32,1.96-1.65c0.69-0.33,1.46-0.5,2.31-0.5     c1.85,0,3.11,0.65,3.76,1.94c0.36,0.71,0.54,1.72,0.54,3.04v8.38h-2.23v-8.23c0-0.8-0.12-1.44-0.35-1.93     c-0.39-0.81-1.1-1.22-2.12-1.22c-0.52,0-0.95,0.05-1.28,0.16c-0.6,0.18-1.13,0.54-1.58,1.07c-0.37,0.43-0.6,0.88-0.71,1.34     c-0.11,0.46-0.16,1.12-0.16,1.97v6.84h-2.2V95.17z"/>
			<path class="st1" d="M371.66,100.34c0.5-0.07,0.84-0.28,1.01-0.63c0.1-0.2,0.15-0.48,0.15-0.85c0-0.75-0.27-1.3-0.8-1.64     c-0.53-0.34-1.29-0.51-2.28-0.51c-1.14,0-1.95,0.31-2.43,0.93c-0.27,0.34-0.44,0.86-0.52,1.54h-2.05     c0.04-1.62,0.56-2.75,1.56-3.38c1-0.63,2.17-0.95,3.49-0.95c1.53,0,2.78,0.29,3.74,0.88c0.95,0.59,1.42,1.5,1.42,2.74v7.53     c0,0.23,0.05,0.41,0.14,0.55c0.09,0.14,0.29,0.21,0.59,0.21c0.1,0,0.21-0.01,0.33-0.02c0.12-0.01,0.25-0.03,0.39-0.05v1.62     c-0.34,0.1-0.6,0.16-0.78,0.18s-0.42,0.04-0.73,0.04c-0.76,0-1.31-0.27-1.65-0.8c-0.18-0.28-0.31-0.69-0.38-1.21     c-0.45,0.59-1.09,1.1-1.93,1.53c-0.84,0.43-1.76,0.65-2.77,0.65c-1.21,0-2.2-0.37-2.97-1.1c-0.77-0.74-1.15-1.66-1.15-2.76     c0-1.21,0.38-2.15,1.13-2.82c0.76-0.67,1.75-1.08,2.98-1.23L371.66,100.34z M367.04,106.28c0.46,0.37,1.01,0.55,1.64,0.55     c0.77,0,1.52-0.18,2.24-0.54c1.22-0.59,1.83-1.56,1.83-2.91v-1.77c-0.27,0.17-0.61,0.32-1.03,0.43c-0.42,0.12-0.83,0.2-1.24,0.25     l-1.33,0.17c-0.79,0.1-1.39,0.27-1.79,0.5c-0.68,0.38-1.02,0.99-1.02,1.83C366.35,105.41,366.58,105.91,367.04,106.28z"/>
			<path class="st1" d="M378.62,90.31h2.2v17.94h-2.2V90.31z"/>
			<path class="st1" d="M294.03,122.72c0.39,0.24,0.83,0.67,1.33,1.29v-6.61h2.11v18h-1.97v-1.83c-0.51,0.81-1.12,1.39-1.81,1.75     c-0.7,0.36-1.5,0.54-2.4,0.54c-1.45,0-2.71-0.61-3.77-1.84c-1.06-1.22-1.59-2.85-1.59-4.89c0-1.9,0.48-3.55,1.45-4.95     c0.97-1.4,2.35-2.09,4.15-2.09C292.52,122.08,293.36,122.3,294.03,122.72z M289.12,132.51c0.59,0.94,1.54,1.41,2.84,1.41     c1.01,0,1.84-0.44,2.5-1.31c0.65-0.87,0.98-2.13,0.98-3.76c0-1.65-0.34-2.87-1.01-3.66c-0.67-0.79-1.5-1.19-2.49-1.19     c-1.1,0-1.99,0.42-2.68,1.27c-0.68,0.85-1.03,2.09-1.03,3.73C288.23,130.4,288.52,131.57,289.12,132.51z"/>
			<path class="st1" d="M308.82,122.69c0.87,0.43,1.53,1,1.98,1.69c0.44,0.66,0.73,1.42,0.87,2.3c0.13,0.6,0.19,1.56,0.19,2.88     h-9.52c0.04,1.33,0.35,2.4,0.93,3.2c0.58,0.8,1.48,1.21,2.7,1.21c1.14,0,2.05-0.38,2.73-1.14c0.38-0.44,0.65-0.95,0.81-1.53h2.16     c-0.06,0.48-0.25,1.01-0.57,1.6c-0.32,0.59-0.68,1.07-1.08,1.45c-0.66,0.65-1.48,1.09-2.46,1.32c-0.53,0.13-1.12,0.2-1.78,0.2     c-1.62,0-2.99-0.59-4.11-1.77c-1.12-1.18-1.69-2.84-1.69-4.97c0-2.1,0.57-3.8,1.7-5.11c1.13-1.31,2.61-1.96,4.44-1.96     C307.06,122.04,307.95,122.25,308.82,122.69z M309.6,127.8c-0.09-0.95-0.29-1.7-0.62-2.27c-0.6-1.05-1.59-1.58-2.99-1.58     c-1,0-1.84,0.36-2.52,1.08c-0.68,0.72-1.04,1.64-1.08,2.76H309.6z"/>
			<path class="st1" d="M334.57,118.77c1.24,1.2,1.93,2.56,2.06,4.08h-2.38c-0.26-1.16-0.79-2.07-1.58-2.75     c-0.79-0.68-1.89-1.01-3.32-1.01c-1.74,0-3.14,0.62-4.21,1.86c-1.07,1.24-1.6,3.14-1.6,5.7c0,2.1,0.48,3.8,1.45,5.1     c0.96,1.31,2.4,1.96,4.31,1.96c1.76,0,3.1-0.69,4.02-2.06c0.49-0.72,0.85-1.67,1.09-2.85h2.38c-0.21,1.89-0.9,3.47-2.08,4.75     c-1.41,1.54-3.31,2.31-5.7,2.31c-2.06,0-3.79-0.63-5.19-1.89c-1.84-1.67-2.77-4.25-2.77-7.73c0-2.65,0.69-4.82,2.08-6.51     c1.5-1.84,3.56-2.76,6.19-2.76C331.59,116.97,333.33,117.57,334.57,118.77z"/>
			<path class="st1" d="M349.12,123.63c1.16,1.12,1.73,2.77,1.73,4.95c0,2.11-0.51,3.85-1.53,5.22c-1.02,1.37-2.6,2.06-4.74,2.06     c-1.79,0-3.2-0.61-4.25-1.82c-1.05-1.22-1.58-2.85-1.58-4.9c0-2.2,0.55-3.95,1.66-5.25c1.11-1.3,2.59-1.95,4.46-1.95     C346.55,121.94,347.96,122.51,349.12,123.63z M347.75,132.32c0.53-1.1,0.8-2.33,0.8-3.68c0-1.22-0.19-2.21-0.58-2.98     c-0.61-1.2-1.66-1.8-3.16-1.8c-1.33,0-2.29,0.51-2.89,1.54c-0.6,1.02-0.9,2.26-0.9,3.71c0,1.39,0.3,2.55,0.9,3.48     c0.6,0.93,1.56,1.39,2.87,1.39C346.23,133.97,347.22,133.42,347.75,132.32z M348.11,117.07l-3.25,3.53h-1.68l2.23-3.53H348.11z"/>
			<path class="st1" d="M353.61,122.32h2.09v2.26c0.17-0.44,0.59-0.97,1.26-1.6c0.67-0.63,1.44-0.94,2.31-0.94     c0.04,0,0.11,0,0.21,0.01c0.1,0.01,0.26,0.03,0.5,0.05v2.31c-0.13-0.02-0.25-0.04-0.36-0.05c-0.11-0.01-0.23-0.01-0.36-0.01     c-1.11,0-1.96,0.36-2.56,1.07c-0.6,0.71-0.89,1.53-0.89,2.46v7.52h-2.2V122.32z"/>
			<path class="st1" d="M369.07,122.72c0.39,0.24,0.83,0.67,1.33,1.29v-6.61h2.11v18h-1.97v-1.83c-0.51,0.81-1.12,1.39-1.81,1.75     c-0.7,0.36-1.5,0.54-2.4,0.54c-1.45,0-2.71-0.61-3.77-1.84c-1.06-1.22-1.59-2.85-1.59-4.89c0-1.9,0.48-3.55,1.45-4.95     c0.97-1.4,2.35-2.09,4.15-2.09C367.56,122.08,368.39,122.3,369.07,122.72z M364.15,132.51c0.59,0.94,1.54,1.41,2.84,1.41     c1.01,0,1.84-0.44,2.5-1.31c0.65-0.87,0.98-2.13,0.98-3.76c0-1.65-0.34-2.87-1.01-3.66c-0.67-0.79-1.5-1.19-2.49-1.19     c-1.1,0-1.99,0.42-2.68,1.27c-0.68,0.85-1.03,2.09-1.03,3.73C363.27,130.4,363.56,131.57,364.15,132.51z"/>
			<path class="st1" d="M385.25,123.63c1.16,1.12,1.73,2.77,1.73,4.95c0,2.11-0.51,3.85-1.53,5.22c-1.02,1.37-2.6,2.06-4.74,2.06     c-1.79,0-3.2-0.61-4.25-1.82c-1.05-1.22-1.58-2.85-1.58-4.9c0-2.2,0.55-3.95,1.66-5.25c1.11-1.3,2.59-1.95,4.46-1.95     C382.68,121.94,384.09,122.51,385.25,123.63z M383.88,132.32c0.53-1.1,0.8-2.33,0.8-3.68c0-1.22-0.19-2.21-0.58-2.98     c-0.61-1.2-1.66-1.8-3.16-1.8c-1.33,0-2.29,0.51-2.89,1.54c-0.6,1.02-0.9,2.26-0.9,3.71c0,1.39,0.3,2.55,0.9,3.48     c0.6,0.93,1.56,1.39,2.87,1.39C382.36,133.97,383.35,133.42,383.88,132.32z"/>
			<path class="st1" d="M389.49,117.4h2.14v6.51c0.48-0.63,1.06-1.11,1.73-1.44c0.67-0.33,1.4-0.5,2.18-0.5     c1.63,0,2.96,0.56,3.97,1.68c1.02,1.12,1.53,2.77,1.53,4.95c0,2.07-0.5,3.79-1.51,5.16c-1,1.37-2.4,2.05-4.18,2.05     c-1,0-1.84-0.24-2.52-0.72c-0.41-0.28-0.84-0.74-1.31-1.37v1.66h-2.03V117.4z M397.89,132.46c0.59-0.95,0.89-2.19,0.89-3.74     c0-1.38-0.3-2.52-0.89-3.42c-0.59-0.9-1.46-1.36-2.61-1.36c-1,0-1.88,0.37-2.64,1.11c-0.75,0.74-1.13,1.96-1.13,3.67     c0,1.23,0.15,2.23,0.46,3c0.58,1.44,1.66,2.16,3.24,2.16C396.41,133.88,397.3,133.41,397.89,132.46z"/>
			<path class="st1" d="M410.58,127.49c0.5-0.06,0.84-0.28,1.01-0.63c0.1-0.2,0.15-0.48,0.15-0.85c0-0.75-0.27-1.3-0.8-1.64     c-0.53-0.34-1.29-0.51-2.28-0.51c-1.14,0-1.95,0.31-2.43,0.93c-0.27,0.34-0.44,0.86-0.52,1.54h-2.05     c0.04-1.62,0.56-2.74,1.56-3.38c1-0.63,2.17-0.95,3.49-0.95c1.53,0,2.78,0.29,3.74,0.88c0.95,0.59,1.42,1.5,1.42,2.74v7.53     c0,0.23,0.05,0.41,0.14,0.55c0.09,0.14,0.29,0.21,0.59,0.21c0.1,0,0.21-0.01,0.33-0.02c0.12-0.01,0.25-0.03,0.39-0.05v1.62     c-0.34,0.1-0.6,0.16-0.78,0.18c-0.18,0.02-0.42,0.04-0.73,0.04c-0.76,0-1.31-0.27-1.65-0.8c-0.18-0.28-0.31-0.69-0.38-1.21     c-0.45,0.59-1.09,1.1-1.93,1.53c-0.84,0.43-1.76,0.65-2.77,0.65c-1.21,0-2.2-0.37-2.97-1.1c-0.77-0.74-1.15-1.66-1.15-2.76     c0-1.21,0.38-2.15,1.13-2.82c0.76-0.67,1.75-1.08,2.97-1.23L410.58,127.49z M405.97,133.43c0.46,0.37,1.01,0.55,1.64,0.55     c0.77,0,1.52-0.18,2.24-0.54c1.22-0.59,1.83-1.56,1.83-2.91v-1.77c-0.27,0.17-0.61,0.32-1.03,0.43c-0.42,0.12-0.83,0.2-1.24,0.24     l-1.33,0.17c-0.79,0.1-1.39,0.27-1.79,0.5c-0.68,0.38-1.02,0.99-1.02,1.83C405.27,132.56,405.51,133.06,405.97,133.43z"/>
		</g>
		<path class="st2" d="M5.43,7.07v130.17h260.34V7.07H5.43z M133.83,135.47H7.21V8.85h126.62V135.47z M185,74.28    c0,7.25-4.02,11.17-9.94,11.17c-6.47,0-10.33-3.85-10.33-11.1V59.86h4.41v14.45c0,4.8,2.07,7.25,6.02,7.25    c3.89,0,5.95-2.49,5.95-7.35V59.86H185V74.28z M211.49,85.44h-0.46l-15.99-16.56v15.75h-4.2V59.05h0.46l15.96,16.55V59.86h4.23    V85.44z M235.89,83.03c-2.2,1.57-4.76,2.42-7.45,2.42c-2.83,0-5.53-0.95-7.7-2.7c-3.04-2.45-4.79-6.16-4.79-10.5    c0-7.63,5.42-13.23,12.6-13.23c2.62,0,5.01,0.77,7.28,2.34l-0.46,4.83c-1.96-2.1-4.09-3.15-6.54-3.15c-4.83,0-8.4,3.71-8.4,9.17    c0,5.22,3.4,9,8.16,9c2.76,0,5.14-1.22,7.56-3.67L235.89,83.03z"/>
	</g>
	<g>
		<path class="st3" d="M68.25,97.4h-1.31c0,1.42-0.84,2.64-2.05,3.19c0.31,0.36,0.63,0.69,0.95,0.98    C67.28,100.74,68.25,99.19,68.25,97.4z M66.36,102.04c0.03,0.02,0.05,0.04,0.08,0.07c0.41,0.32,0.81,0.6,1.21,0.82    c1.53-0.81,2.57-2.41,2.57-4.26h-1.31C68.92,100.27,67.84,101.62,66.36,102.04z M65.39,69.34c0,0-1.5,0-1.87,0    c-0.26-0.26-1.32-1.32-1.32-1.32s-1.06,1.06-1.32,1.32c-0.37,0-1.87,0-1.87,0s0,1.5,0,1.87c-0.26,0.26-1.32,1.32-1.32,1.32    s1.06,1.06,1.32,1.32c0,0.36,0,1.87,0,1.87s1.5,0,1.87,0c0.26,0.26,1.32,1.32,1.32,1.32s1.06-1.06,1.32-1.32c0.37,0,1.87,0,1.87,0    s0-1.5,0-1.87c0.26-0.26,1.32-1.32,1.32-1.32s-1.06-1.06-1.32-1.32C65.39,70.84,65.39,69.34,65.39,69.34z M64.06,73.3    c0,0,0,0.69,0,1.09c-0.4,0-1.09,0-1.09,0s-0.48,0.48-0.77,0.77c-0.28-0.29-0.77-0.77-0.77-0.77s-0.69,0-1.09,0    c0-0.4,0-1.09,0-1.09s-0.49-0.49-0.77-0.77c0.29-0.29,0.77-0.77,0.77-0.77s0-0.69,0-1.09c0.4,0,1.09,0,1.09,0s0.49-0.48,0.77-0.77    c0.29,0.29,0.77,0.77,0.77,0.77s0.69,0,1.09,0c0,0.4,0,1.09,0,1.09s0.49,0.49,0.77,0.77C64.55,72.81,64.06,73.3,64.06,73.3z     M74.29,55.38c-0.1-0.08-0.19-0.15-0.42-0.21l-0.53-0.12c-0.15-0.04-0.2-0.07-0.25-0.1l-0.04-0.02c-0.08-0.04-0.11-0.1-0.11-0.18    c0-0.1,0.04-0.17,0.12-0.22c0.09-0.06,0.21-0.09,0.36-0.09c0.25,0,0.51,0.15,0.65,0.28l0.06,0.06l0.35-0.61l-0.05-0.04    c-0.23-0.17-0.58-0.37-0.97-0.37c-0.4,0-0.72,0.1-0.93,0.29c-0.21,0.19-0.32,0.44-0.32,0.73c0,0.32,0.11,0.56,0.34,0.71    c0.14,0.09,0.27,0.17,0.59,0.24l0.33,0.07c0.14,0.03,0.19,0.06,0.25,0.1l0.05,0.03c0.07,0.04,0.1,0.1,0.1,0.18    c0,0.14-0.07,0.23-0.23,0.29c-0.09,0.03-0.21,0.05-0.35,0.05c-0.28,0-0.61-0.19-0.7-0.3l-0.06-0.07l-0.35,0.6l0.04,0.04    c0.22,0.18,0.59,0.39,1.09,0.39c0.41,0,0.73-0.1,0.95-0.29c0.23-0.2,0.34-0.45,0.34-0.74c0-0.29-0.1-0.52-0.29-0.67L74.29,55.38z     M71.1,55.02h-1.04c0-0.12,0-1.16,0-1.16h-0.77v3.18h0.77c0,0,0-1.24,0-1.36h1.04c0,0.12,0,1.36,0,1.36h0.77v-3.18H71.1    C71.1,53.85,71.1,54.9,71.1,55.02z M67.88,57.04h0.77v-3.18h-0.77V57.04z M70.2,53.64h0.77c0,0,0-1.21,0-1.33    c0.11,0,0.67,0,0.67,0v-0.66c0,0-0.56,0-0.67,0c0-0.11,0-0.67,0-0.67H70.2c0,0,0,0.55,0,0.67c-0.11,0-0.67,0-0.67,0v0.66    c0,0,0.56,0,0.67,0C70.2,52.44,70.2,53.64,70.2,53.64z M61.95,92.43L61.95,92.43l-0.01,0.13c0,1.43,1.16,2.59,2.6,2.59l0.44,0    v1.01c-0.01,1.12-0.54,2.11-1.37,2.75c0.25,0.38,0.51,0.73,0.77,1.06c1.16-0.88,1.9-2.27,1.9-3.83v-2.28h-1.74    c-0.72,0-1.29-0.58-1.29-1.29l0.01-0.14c0-0.58-0.39-1.08-0.92-1.24l0,0c-0.5-0.18-0.85-0.66-0.85-1.21c0-0.03,0-0.16,0.03-0.28    c0.02-0.07,0.06-0.16,0.06-0.39c0-0.49-0.27-0.91-0.67-1.13l0,0c-1.06-0.6-1.77-1.74-1.77-3.05c0-0.25,0.02-0.49,0.07-0.72    l4.17,1.18l4.27,5.07l2.21-1.96l0-2.92h-1.36c0,0,0.62-1.32,2.13-1.32c1.4,0,2.11,1.01,2.35,1.96l1.01,3.79l3.88-4.61l4.17-1.18    c0.05,0.23,0.08,0.47,0.08,0.72c0,1.3-0.71,2.44-1.77,3.05l0,0c-0.4,0.22-0.67,0.64-0.67,1.13c0,0.22,0.04,0.31,0.06,0.39    c0.03,0.12,0.03,0.24,0.03,0.28c0,0.56-0.36,1.04-0.85,1.21v0c-0.53,0.16-0.92,0.65-0.92,1.24l0.01,0.14    c0,0.71-0.58,1.29-1.3,1.29h-3.2c0,0,0.11,2.27-1.62,4.1c-0.39,0.41-0.98,1.52-0.33,2.89c0.68,1.44,2.06,2.08,2.06,2.08    c0.5-0.26,1.29-0.89,1.29-0.89c-1.17-0.34-1.8-1.09-2.19-1.79c-0.3-0.54-0.14-1.16,0.23-1.51c0.51-0.48,1.1-1.5,1.34-2.12    c0.31-0.79,0.43-1.47,0.43-1.47l1.98,0c1.43,0,2.6-1.16,2.6-2.59v-0.13h0c1.03-0.35,1.77-1.32,1.77-2.46    c0-0.22-0.03-0.44-0.08-0.65c1.46-0.83,2.44-2.4,2.44-4.19c0-0.83-0.21-1.61-0.58-2.3l-5.72,1.59l-2.57,3.06    c0,0-0.21-0.66-0.37-1.39c-0.35-1.55-1.46-2.21-1.46-2.21l1.36-2.96l-2.22,0.44l-1.23-1.67l-1.26,1.67l-2.18-0.45l1.36,2.96    c-0.89,0.61-1.54,1.63-1.54,2.97c0,0.1,0.01,0.27,0.01,0.27h1.52l0.01,0.97l-0.75,0.68l-3.65-4.34l-5.72-1.59    c-0.37,0.68-0.58,1.46-0.58,2.3c0,1.8,0.98,3.36,2.44,4.19c-0.05,0.21-0.08,0.42-0.08,0.65C60.18,91.11,60.93,92.08,61.95,92.43z     M70.01,82.83l0.6-0.85l0.6,0.85l0.6-0.12l-0.28,0.62c0,0-0.51-0.12-0.92-0.12c-0.41,0-0.92,0.12-0.92,0.12l-0.28-0.62    L70.01,82.83z M39.75,88.65c-0.92,1.88-0.99,4.27-0.99,4.96c0,1.71,0.47,6.05,4.81,9.52c2.01,1.61,3.71,1.96,5.34,2.31    c1.14,0.24,2.21,0.47,3.46,1.09c2.76,1.38,3.72,2.63,4.49,3.63l0.15,0.19c4.8,6.19,11.14,6.86,13.63,6.86    c2.49,0,8.83-0.67,13.63-6.86l0.15-0.19c0.77-1,1.73-2.26,4.49-3.63c1.25-0.62,2.33-0.85,3.46-1.09c1.64-0.35,3.33-0.71,5.34-2.31    c4.34-3.47,4.81-7.82,4.81-9.52c0-0.69-0.07-3.08-0.99-4.96c-0.82-1.68-1.25-3.45-1.4-5.94l3.51-3.51l-3.96-3.96h-4.21    c-0.58-1.03-1.41-1.8-2.47-2.27c1.48-0.4,2.51-1.6,2.51-3.01c0-0.06,0-0.13-0.01-0.19c-0.1-1.54-1.09-3.28-3.51-3.29    c-0.11-0.24-0.28-0.72-0.34-1.62c-0.01-0.1-0.01-0.2-0.01-0.3c0-1.09,0.36-2.37,0.77-3.84c0.51-1.84,1.09-3.9,1.09-6.13    c0-0.27-0.01-0.54-0.03-0.82c-0.19-2.91-1.29-5.33-3.18-6.99c-1.91-1.67-4.56-2.49-7.47-2.29c-0.52,0.03-1.02,0.12-1.49,0.25    c0.46-0.33,0.81-0.7,1.01-1.09l5.12-8.69l-0.81-1.71l-1.9,0.09c0,0-0.33,0.54-0.47,0.78c-0.24-0.14-0.81-0.48-0.81-0.48    l-1.62,0.91l0.1,1.82c0,0,0.5,0.32,0.71,0.46c-0.17,0.28-0.22,0.37-0.4,0.67c-0.62-0.44-1.65-1.11-2.91-1.65    c0.14-0.53,0.29-1.09,0.45-1.67c0.3,0.08,0.94,0.26,0.94,0.26l1.48-1.29l-0.62-1.86c0,0-0.65-0.18-0.95-0.26    c0.08-0.3,0.26-0.95,0.26-0.95l-1.29-1.48l-1.86,0.62c0,0-0.18,0.65-0.26,0.95c-0.3-0.08-0.94-0.26-0.94-0.26l-1.5,1.28l0.64,1.87    c0,0,0.64,0.18,0.94,0.26c-0.15,0.54-0.27,0.98-0.41,1.51c-0.76-0.17-2.13-0.44-3.73-0.56v-1.94c0.39,0,1.14,0,1.14,0l1.25-1.88    l-1.25-1.88c0,0-0.75,0-1.14,0c0-0.39,0-1.12,0-1.12l-1.88-1.34l-1.88,1.34c0,0,0,0.74,0,1.12c-0.39,0-1.14,0-1.14,0l-1.25,1.88    l1.25,1.88c0,0,0.75,0,1.14,0v1.94c-1.59,0.12-2.96,0.39-3.73,0.56c-0.14-0.52-0.27-0.97-0.41-1.51c0.3-0.08,0.94-0.26,0.94-0.26    l0.64-1.87l-1.5-1.28c0,0-0.64,0.18-0.94,0.26c-0.08-0.3-0.26-0.95-0.26-0.95l-1.86-0.62l-1.29,1.48c0,0,0.18,0.65,0.26,0.95    c-0.3,0.08-0.95,0.26-0.95,0.26l-0.62,1.86l1.48,1.29c0,0,0.64-0.18,0.94-0.26c0.16,0.58,0.31,1.14,0.45,1.67    c-1.26,0.54-2.29,1.21-2.91,1.65c-0.18-0.3-0.23-0.39-0.4-0.67c0.21-0.13,0.71-0.46,0.71-0.46l0.1-1.82l-1.62-0.91    c0,0-0.57,0.34-0.81,0.48c-0.14-0.24-0.47-0.78-0.47-0.78l-1.9-0.09l-0.81,1.71l5.11,8.67c0.2,0.4,0.55,0.77,1.02,1.11    c-0.47-0.13-0.97-0.22-1.49-0.25c-2.91-0.19-5.56,0.62-7.47,2.29c-1.89,1.66-2.99,4.07-3.18,6.99c-0.02,0.27-0.03,0.55-0.03,0.82    c0,2.23,0.58,4.29,1.09,6.13c0.41,1.47,0.77,2.75,0.77,3.84c0,0.1,0,0.2-0.01,0.3c-0.06,0.9-0.23,1.39-0.34,1.62    c-2.42,0.01-3.41,1.75-3.51,3.29c-0.01,0.06-0.01,0.13-0.01,0.19c0,1.41,1.03,2.61,2.51,3.01c-1.06,0.47-1.89,1.24-2.47,2.27    h-4.21l-3.96,3.96l3.51,3.51C40.99,85.2,40.57,86.97,39.75,88.65z M100.07,77.51l1.69,1.69l-1.69,1.69c0-0.14,0-0.27,0-0.41V77.51    z M94.32,75.9c0.06,0.1,0.11,0.2,0.16,0.3c0.05,0.12,0.11,0.24,0.15,0.36c0.35,0.91,0.46,1.93,0.46,2.88    c0,1.72-0.4,3.76-0.97,5.82c-1.07,3.81-2.74,7.67-3.65,9.64c-0.35-0.84-0.94-2.24-0.94-2.24s-1.56,0.41-2.54,0.66    c0.99-1.54,2.65-4.18,4.45-7.1c1.18-1.92,2.03-4.6,2.03-6.88c0-0.92-0.14-1.77-0.45-2.48c-0.07-0.17-0.15-0.34-0.25-0.5    c0,0,0-0.01,0-0.01l0,0c-0.51-0.84-1.39-1.46-2.57-1.46c-1.59,0-2.65,1.32-2.65,2.55h1.33c0-0.04,0-0.08,0.01-0.12    c0.07-0.5,0.52-1.09,1.31-1.09c0.59,0,1.01,0.26,1.28,0.61c0.07,0.09,0.13,0.17,0.18,0.27c0.04,0.07,0.07,0.14,0.1,0.21    c0.12,0.28,0.17,0.57,0.17,0.82c0,1.48-1.01,2.44-2.57,2.44c-1.79,0-3.09-1.33-3.09-3.17c0-1.48,1.22-3.66,3.84-3.66    C92.34,73.73,93.61,74.65,94.32,75.9z M56.5,77.66c0.05-6.17,1.15-12.01,3.12-16.78v6.67c0,0,2.04-2.04,2.58-2.58    c0.54,0.54,2.58,2.6,2.58,2.6v-5.89l12.51,8.25h-10.1c0,0,2.04,2.04,2.57,2.58c-0.53,0.54-2.57,2.58-2.57,2.58l17.5,0    c0.05,0.85,0.08,1.7,0.08,2.56H56.5z M84.77,78.99c-0.11,7.13-1.61,13.79-4.25,18.84c-2.68,5.11-6.19,7.93-9.88,7.93    c-3.69,0-7.2-2.82-9.88-7.93c-2.64-5.05-4.14-11.71-4.25-18.84H84.77z M52.8,62.37c-0.36-1.58-0.72-3.21-0.72-5.35    c0-0.41,0.01-0.84,0.04-1.29c0.24-3.56,2.32-5.07,3.54-5.65c0.38-0.18,0.77-0.31,1.16-0.41c-0.42,0.54-0.7,1.23-0.74,1.92    c-0.01,0.1-0.01,0.2-0.01,0.3c0,2.09,1.49,3.63,3.71,3.77c0.38,0.03,0.75,0.01,1.11-0.05c-0.45,0.69-0.89,1.43-1.3,2.22    c-2.38,4.54-3.86,10.32-4.29,16.57c-0.85-1.11-2.18-1.93-3.88-2c0.94-0.73,1.79-2.17,1.98-4.97c0.02-0.26,0.02-0.52,0.02-0.78    C53.41,65.12,53.11,63.78,52.8,62.37z M76.74,51.41c0,0.03,0.01,0.06,0.01,0.09c-0.91-0.72-1.85-1.28-2.82-1.66    c-0.02-0.62,0.01-1.9,0.6-2.99c1.73-0.22,3.35-0.57,4.68-1.05c-0.31,0.24-0.61,0.52-0.87,0.82C77.2,47.9,76.62,49.65,76.74,51.41z     M70.64,45.76c-6.21,0-10.25-1.76-10.55-2.78c0,0,0,0,0,0c-0.01-0.04-0.02-0.08-0.02-0.11c0-1.53,4.21-3.84,10.57-3.84    c6.35,0,10.57,2.31,10.57,3.84C81.2,43.86,77.09,45.76,70.64,45.76z M73,47c-0.32,0.89-0.4,1.77-0.42,2.42    c-0.64-0.15-1.29-0.22-1.95-0.22c-0.66,0-1.31,0.07-1.95,0.22c-0.01-0.64-0.1-1.53-0.42-2.42c0.79,0.06,1.58,0.09,2.37,0.09    C71.42,47.09,72.22,47.06,73,47z M66.76,46.85c0.58,1.09,0.62,2.37,0.6,2.99c-0.97,0.39-1.92,0.94-2.82,1.66    c0-0.03,0.01-0.06,0.01-0.09c0.12-1.76-0.46-3.51-1.59-4.8c-0.27-0.3-0.56-0.58-0.87-0.82C63.4,46.28,65.03,46.63,66.76,46.85z     M70.64,50.52c3.69,0,7.2,2.82,9.88,7.93c1.44,2.76,2.55,6,3.27,9.53L63.36,54.5C65.55,51.91,68.05,50.52,70.64,50.52z     M84.12,69.8c0.18,1.09,0.32,2.2,0.43,3.33L61.17,57.7c0.44-0.78,0.9-1.5,1.38-2.15L84.12,69.8z M70.39,71.26    c2.05,0,7.62,0,8.92,0l3.79,2.5c-3.67,0-10.8,0-12.71,0c0.38-0.38,1.25-1.25,1.25-1.25S70.77,71.64,70.39,71.26z M63.46,60.8v3.54    c-0.38-0.38-1.25-1.26-1.25-1.26s-0.88,0.87-1.25,1.25v-5.19L63.46,60.8z M81.69,57.84c-0.41-0.79-0.85-1.53-1.3-2.22    c0.36,0.06,0.73,0.08,1.12,0.05c2.22-0.15,3.7-1.68,3.7-3.77c0-0.1,0-0.2-0.01-0.3c-0.04-0.69-0.32-1.38-0.74-1.92    c0.39,0.09,0.78,0.23,1.16,0.41c1.22,0.58,3.31,2.08,3.54,5.65c0.03,0.45,0.04,0.88,0.04,1.29c0,2.14-0.37,3.77-0.73,5.35    c-0.32,1.41-0.62,2.75-0.62,4.3c0,0.25,0.01,0.51,0.03,0.78c0.19,2.8,1.04,4.24,1.97,4.97c-1.7,0.07-3.03,0.89-3.88,2    C85.55,68.16,84.07,62.38,81.69,57.84z M82.91,45.81c2.56-0.17,4.87,0.53,6.51,1.97c1.62,1.42,2.57,3.52,2.74,6.07    c0.15,2.31-0.47,4.54-1.02,6.5c-0.46,1.65-0.89,3.21-0.8,4.58c0.13,1.96,0.73,2.59,0.92,2.73l0.2,0.16l0.26-0.02    c2.1-0.14,2.43,1.38,2.48,2.04c0.06,1-0.85,1.84-2.08,1.92c-2.14,0.14-2.75-2.33-2.89-4.42c-0.11-1.69,0.2-3.08,0.56-4.7    c0.43-1.89,0.91-4.03,0.71-7.02c-0.2-3.1-1.77-5.56-4.3-6.76c-1.98-0.94-4.22-0.91-5.59,0.07l0.01,0.01    c-0.77,0.5-1.23,1.35-1.23,2.17c0,0.05,0,0.1,0.01,0.14l1.33-0.09c-0.03-0.52,0.39-1.28,1.27-1.34c0.47-0.03,0.88,0.1,1.21,0.39    c0.47,0.41,0.67,1.03,0.69,1.44c0.1,1.51-0.86,2.55-2.46,2.66c-0.9,0.06-1.7-0.19-2.31-0.72c-0.62-0.55-0.99-1.34-1.05-2.3    c-0.09-1.41,0.37-2.81,1.27-3.83C80.21,46.49,81.45,45.91,82.91,45.81z M59.2,41.48c-1.31-2.23-3.64-6.18-3.88-6.59    c0.06-0.12,0.07-0.14,0.13-0.27c0.14,0.01,0.17,0.01,0.3,0.01c0.18,0.31,0.79,1.31,0.79,1.31s0.98-0.59,1.29-0.77    c0.1,0.06,0.12,0.07,0.23,0.12c-0.01,0.15-0.01,0.17-0.02,0.31c-0.28,0.18-1.22,0.79-1.22,0.79l1.84,3.07l0.6-0.49    c0.02-0.01,1.63-1.34,3.7-2.11l0.57-0.21l-1.11-4.11c0,0-1.19,0.33-1.55,0.42c-0.12-0.1-0.15-0.13-0.28-0.24    c0.05-0.16,0.07-0.2,0.11-0.35c0.36-0.1,1.54-0.42,1.54-0.42s-0.33-1.18-0.42-1.54c0.1-0.12,0.13-0.15,0.24-0.28    c0.16,0.05,0.2,0.07,0.35,0.12c0.1,0.36,0.42,1.54,0.42,1.54s1.19-0.33,1.54-0.42c0.12,0.1,0.15,0.13,0.28,0.24    c-0.06,0.16-0.07,0.2-0.12,0.35c-0.36,0.1-1.55,0.42-1.55,0.42l1.11,4.05l0.64-0.18c0.02,0,2.18-0.59,4.72-0.72l0.63-0.03v-4.53    c0,0-1.35,0-1.76,0c-0.13-0.2-0.21-0.31-0.36-0.54c0.15-0.23,0.23-0.34,0.36-0.55c0.4,0,1.76,0,1.76,0s0-1.37,0-1.77    c0.19-0.14,0.31-0.22,0.55-0.39c0.24,0.17,0.35,0.25,0.55,0.39c0,0.4,0,1.77,0,1.77s1.35,0,1.76,0c0.14,0.2,0.21,0.31,0.36,0.55    c-0.15,0.23-0.23,0.34-0.36,0.54c-0.4,0-1.76,0-1.76,0v4.53l0.63,0.03c2.54,0.13,4.7,0.71,4.72,0.72l0.64,0.18l1.11-4.05    c0,0-1.19-0.33-1.55-0.42c-0.05-0.15-0.06-0.18-0.12-0.35c0.13-0.11,0.16-0.14,0.28-0.24c0.36,0.1,1.54,0.42,1.54,0.42    s0.32-1.18,0.42-1.54c0.15-0.05,0.18-0.06,0.35-0.12c0.11,0.13,0.14,0.16,0.24,0.28c-0.1,0.36-0.42,1.54-0.42,1.54    s1.18,0.33,1.54,0.42c0.05,0.15,0.06,0.18,0.11,0.35c-0.13,0.11-0.16,0.14-0.28,0.24c-0.36-0.1-1.55-0.42-1.55-0.42l-1.11,4.11    l0.57,0.21c2.07,0.78,3.69,2.1,3.7,2.11l0.6,0.49l0.4-0.66l1.44-2.41c0,0-0.94-0.6-1.22-0.79c-0.01-0.13-0.01-0.16-0.02-0.31    c0.11-0.06,0.12-0.07,0.22-0.12c0.31,0.19,1.29,0.77,1.29,0.77s0.6-1,0.79-1.31c0.13-0.01,0.16-0.01,0.3-0.01    c0.06,0.13,0.07,0.16,0.13,0.27c-0.24,0.4-2.57,4.36-3.88,6.59c-1.44-2.15-6.09-3.78-11.44-3.78    C65.29,37.7,60.64,39.32,59.2,41.48z M47.1,69.85c0.04-0.66,0.37-2.18,2.48-2.04l0.26,0.02l0.2-0.16    c0.18-0.15,0.79-0.77,0.92-2.73c0.09-1.37-0.34-2.93-0.8-4.58c-0.55-1.96-1.17-4.19-1.02-6.5c0.17-2.55,1.11-4.65,2.74-6.07    c1.64-1.44,3.95-2.14,6.51-1.97c1.46,0.1,2.7,0.68,3.58,1.68c0.9,1.02,1.36,2.42,1.27,3.83c-0.06,0.96-0.43,1.75-1.05,2.3    c-0.6,0.53-1.4,0.78-2.31,0.72c-1.59-0.11-2.56-1.15-2.46-2.66c0.03-0.41,0.22-1.03,0.69-1.44c0.33-0.29,0.73-0.42,1.21-0.39    c0.88,0.06,1.31,0.82,1.27,1.34l1.33,0.09c0-0.05,0-0.1,0-0.14c0-0.82-0.46-1.67-1.23-2.17l0.01-0.01c-1.37-0.98-3.62-1-5.59-0.07    c-2.53,1.2-4.09,3.66-4.3,6.76c-0.2,2.99,0.29,5.13,0.71,7.02c0.36,1.61,0.68,3,0.56,4.7c-0.14,2.09-0.75,4.56-2.89,4.42    C47.94,71.7,47.03,70.85,47.1,69.85z M46.65,76.56c0.05-0.12,0.1-0.24,0.15-0.36c0.05-0.1,0.1-0.21,0.16-0.3    c0.7-1.25,1.98-2.17,4.21-2.17c2.62,0,3.84,2.18,3.84,3.66c0,1.84-1.3,3.17-3.09,3.17c-1.56,0-2.57-0.96-2.57-2.44    c0-0.24,0.06-0.54,0.17-0.82c0.03-0.07,0.07-0.15,0.1-0.21c0.05-0.09,0.11-0.18,0.18-0.27c0.27-0.35,0.69-0.61,1.28-0.61    c0.8,0,1.25,0.6,1.32,1.09c0,0.04,0.01,0.08,0.01,0.12h1.33c0-1.23-1.07-2.55-2.65-2.55c-1.17,0-2.05,0.62-2.57,1.46v0    c0,0,0,0.01-0.01,0.01c-0.1,0.16-0.18,0.33-0.25,0.5c-0.31,0.72-0.45,1.56-0.45,2.48c0,2.28,0.84,4.96,2.03,6.88    c1.8,2.92,3.47,5.56,4.45,7.1c-0.98-0.25-2.54-0.66-2.54-0.66s-0.58,1.4-0.93,2.24c-0.91-1.97-2.59-5.83-3.65-9.64    c-0.58-2.06-0.97-4.1-0.97-5.82C46.19,78.49,46.3,77.47,46.65,76.56z M45.87,90.23c0.24-0.6,0.49-1.22,0.65-1.84l0.03-0.12    c0.02-0.09,0.04-0.17,0.06-0.26c1.53,4.56,3.51,8.56,3.65,8.83l0.65,1.3c0,0,1.32-3.16,1.62-3.89c0.8,0.21,4.71,1.23,4.71,1.23    l-0.92-1.43c-0.02-0.04-2.53-3.92-5.35-8.51c-0.85-1.37-1.42-3.01-1.68-4.53c0.67,0.57,1.57,0.91,2.62,0.91    c1.34,0,2.5-0.55,3.3-1.44c0.28,6.79,1.81,13.12,4.36,18c2.92,5.57,6.84,8.64,11.06,8.64c4.21,0,8.14-3.07,11.06-8.64    c2.56-4.89,4.08-11.21,4.36-18c0.8,0.9,1.96,1.44,3.3,1.44c1.05,0,1.95-0.34,2.62-0.91c-0.25,1.52-0.83,3.16-1.68,4.53    c-2.83,4.59-5.33,8.47-5.35,8.51l-0.92,1.43c0,0,3.92-1.02,4.71-1.23c0.3,0.73,1.62,3.89,1.62,3.89l0.65-1.3    c0.14-0.27,2.12-4.27,3.65-8.83c0.02,0.09,0.04,0.18,0.07,0.26l0.03,0.12c0.15,0.63,0.4,1.25,0.64,1.84    c0.42,1.05,0.86,2.13,0.86,3.38c0,0.8-0.26,4.82-5.42,5.82c-2.79,0.54-4.88,1.26-7.9,3.48c-1.84,1.35-2.86,2.66-3.61,3.62    c-0.25,0.33-0.47,0.61-0.68,0.84c-3.11,3.45-7.22,3.62-8.02,3.62c-0.79,0-4.91-0.17-8.02-3.62c-0.21-0.23-0.43-0.51-0.68-0.84    c-0.74-0.96-1.76-2.27-3.61-3.62c-3.02-2.22-5.11-2.93-7.9-3.48c-5.16-1-5.42-5.03-5.42-5.82C45.02,92.36,45.45,91.28,45.87,90.23    z M42.53,80.47v-3.91h2.71c-0.26,0.84-0.39,1.81-0.39,2.88c0,1.77,0.38,3.84,0.94,5.91c-0.16,1.05-0.37,1.87-0.55,2.6l-0.03,0.12    c-0.13,0.54-0.35,1.08-0.59,1.67c-0.45,1.11-0.95,2.37-0.95,3.88c0,2.71,1.7,6.2,6.49,7.13c2.66,0.52,4.53,1.16,7.37,3.24    c1.69,1.24,2.61,2.42,3.34,3.37c0.26,0.33,0.5,0.65,0.74,0.92c3.48,3.86,8.11,4.06,9,4.06c0.89,0,5.52-0.2,9-4.06    c0.24-0.27,0.49-0.58,0.74-0.92c0.73-0.95,1.65-2.12,3.34-3.37c2.84-2.08,4.71-2.73,7.37-3.24c4.79-0.93,6.5-4.42,6.5-7.13    c0-1.51-0.51-2.76-0.96-3.88c-0.23-0.58-0.45-1.13-0.59-1.67l-0.03-0.12c-0.18-0.73-0.38-1.55-0.55-2.6    c0.56-2.07,0.94-4.13,0.94-5.91c0-1.07-0.13-2.03-0.39-2.88h2.71v3.91c0,3.97,0.45,6.42,1.59,8.76c0.63,1.29,0.86,3.1,0.86,4.37    c0,1.51-0.42,5.38-4.31,8.48c-1.76,1.41-3.23,1.72-4.79,2.05c-1.17,0.25-2.38,0.51-3.78,1.2c-3.03,1.51-4.14,2.96-4.95,4.01    l-0.14,0.18c-4.44,5.73-10.28,6.35-12.58,6.35c-2.3,0-8.14-0.62-12.58-6.35l-0.14-0.18c-0.81-1.05-1.92-2.5-4.95-4.01    c-1.4-0.7-2.61-0.96-3.78-1.2c-1.56-0.33-3.03-0.64-4.79-2.05c-3.89-3.11-4.31-6.97-4.31-8.48c0-1.27,0.23-3.09,0.86-4.37    C42.09,86.9,42.53,84.44,42.53,80.47z M39.51,79.2l1.69-1.69v2.97c0,0.14,0,0.28,0,0.41L39.51,79.2z"/>
	</g>
</g>
</svg>